<?xml version="1.0" standalone="no"?>
<!DOCTYPE svg PUBLIC "-//W3C//DTD SVG 20010904//EN"
 "http://www.w3.org/TR/2001/REC-SVG-20010904/DTD/svg10.dtd">
<svg version="1.0" xmlns="http://www.w3.org/2000/svg"
 width="1280.000000pt" height="720.000000pt" viewBox="0 0 1280.000000 720.000000"
 preserveAspectRatio="xMidYMid meet">
<metadata>
Created by potrace 1.15, written by Peter Selinger 2001-2017
</metadata>
<g transform="translate(0.000000,720.000000) scale(0.100000,-0.100000)"
fill="#000000" stroke="none">
<path d="M10843 7164 c5 -29 3 -35 -8 -30 -18 7 -19 -6 -3 -22 9 -9 10 -15 2
-20 -6 -4 -14 -16 -18 -27 -8 -20 -8 -20 -15 -1 -7 19 -8 19 -13 -2 -6 -23 16
-51 25 -32 3 6 4 5 3 -2 -2 -7 -14 -12 -26 -10 -13 1 -27 -3 -31 -10 -10 -16
-43 16 -54 52 l-7 23 -18 -23 c-16 -22 -20 -22 -36 -10 -16 13 -17 13 -9 0 8
-13 7 -13 -9 -1 -12 10 -20 11 -28 3 -13 -13 -2 -65 12 -57 6 3 10 -1 10 -9 0
-9 -6 -13 -15 -10 -11 5 -14 -4 -13 -40 0 -26 4 -49 9 -52 20 -12 8 -31 -18
-28 -16 1 -32 -4 -40 -14 -18 -25 -16 -30 17 -37 35 -8 38 -20 11 -35 -26 -14
-31 -13 -31 6 0 13 -4 11 -18 -6 -16 -20 -19 -20 -31 -6 -14 17 -7 37 12 32 7
-1 9 -1 4 1 -4 3 -5 9 -2 13 3 5 -3 18 -14 29 -19 19 -19 19 -24 0 -7 -25 -23
-24 -37 1 -6 11 -17 20 -25 20 -8 0 -16 5 -16 10 -1 6 -3 15 -4 20 -1 6 -3 17
-4 26 -1 10 -7 13 -18 10 -18 -6 -43 31 -43 61 0 24 -36 -8 -51 -43 -10 -26
-15 -31 -26 -23 -20 17 -16 47 7 54 11 3 20 13 20 22 0 11 -4 13 -12 6 -23
-18 -58 -22 -58 -7 0 8 -6 14 -14 14 -8 0 -16 6 -18 12 -3 7 -5 -4 -6 -24 -1
-26 4 -40 16 -47 19 -11 18 -12 -18 -16 -45 -5 -66 31 -35 61 20 20 20 41 0
24 -8 -6 -19 -9 -24 -5 -6 3 -27 3 -46 -1 -29 -5 -35 -10 -30 -25 7 -21 -10
-26 -19 -6 -3 6 -4 0 -1 -14 3 -18 0 -29 -10 -33 -16 -6 -55 13 -55 26 0 14
-34 0 -41 -18 -11 -29 -10 -34 6 -34 9 0 18 -7 21 -15 4 -8 10 -12 15 -9 5 3
7 9 5 13 -3 4 8 8 24 9 20 0 30 -4 30 -14 0 -12 4 -12 24 1 14 9 27 12 30 7 3
-5 -4 -12 -16 -15 -17 -5 -19 -9 -9 -20 6 -8 9 -21 6 -29 -4 -10 2 -14 22 -13
21 0 28 -5 27 -17 -1 -10 5 -18 15 -19 13 0 13 -2 1 -6 -32 -12 -40 -24 -29
-44 7 -15 6 -19 -6 -19 -8 0 -15 -5 -15 -11 0 -6 9 -9 20 -6 26 7 34 -7 18
-32 -11 -18 -10 -23 7 -35 20 -14 19 -15 -5 -24 -14 -5 -29 -7 -34 -5 -4 3
-12 -1 -17 -8 -6 -11 -10 -9 -15 6 -4 10 -3 20 2 22 6 2 -7 22 -28 45 -20 22
-35 45 -32 50 3 5 28 -15 55 -44 31 -33 49 -47 49 -37 0 9 -8 20 -17 24 -17 7
-16 8 2 15 18 8 17 9 -6 9 -14 1 -33 9 -42 19 -18 20 -23 37 -8 27 5 -3 12 -1
16 5 3 6 -1 13 -10 16 -14 6 -14 9 -3 16 10 8 11 11 0 15 -10 4 -10 8 -1 19 9
11 6 14 -17 15 -16 1 -35 1 -41 0 -12 -2 -17 11 -14 32 0 4 -4 7 -9 7 -14 0
-13 -73 2 -88 6 -6 9 -14 6 -17 -9 -9 -38 7 -38 21 0 8 -4 14 -10 14 -5 0 -10
-4 -10 -8 0 -14 35 -42 53 -42 22 0 35 -49 16 -61 -9 -5 -17 -3 -22 6 -4 8
-15 15 -24 15 -10 0 -13 6 -9 16 5 13 2 15 -16 10 -13 -3 -26 -6 -30 -6 -4 0
-5 -8 -1 -17 4 -14 0 -12 -17 5 -12 13 -25 21 -28 17 -4 -3 0 -11 8 -16 11 -8
7 -9 -15 -4 -16 4 -50 9 -74 11 -25 3 -50 9 -57 15 -8 7 -15 6 -20 -2 -5 -9
-10 -8 -19 4 -7 9 -31 24 -54 32 -34 11 -46 12 -61 2 -11 -6 -19 -16 -19 -22
1 -5 1 -20 0 -33 -1 -20 -4 -21 -22 -12 -27 15 -37 4 -17 -17 15 -14 14 -18
-8 -42 -13 -14 -24 -31 -24 -37 0 -7 -9 -14 -20 -17 -11 -3 -20 -12 -20 -21 0
-9 -7 -16 -15 -16 -8 0 -15 9 -15 19 0 30 -17 34 -24 6 -8 -32 -17 -31 -40 3
-10 15 -28 32 -40 38 -18 8 -21 7 -22 -14 -2 -30 -11 -39 -26 -24 -19 19 -30
14 -18 -7 15 -29 13 -30 -23 -27 -38 3 -69 18 -67 32 0 5 -6 11 -15 12 -13 3
-15 -1 -10 -18 6 -19 5 -20 -14 -9 -23 15 -43 3 -21 -12 12 -9 12 -10 -3 -5
-10 3 -29 -2 -43 -11 -17 -11 -28 -13 -32 -6 -5 8 -16 7 -37 -1 -27 -11 -32
-10 -48 11 -10 13 -24 23 -32 23 -13 0 -30 -27 -27 -43 4 -15 -52 -29 -70 -18
-25 16 -41 14 -34 -4 7 -20 -21 -32 -37 -16 -6 6 -24 11 -41 11 -23 0 -27 -3
-18 -12 17 -17 15 -41 -3 -34 -20 7 -19 -3 1 -26 15 -16 15 -18 1 -24 -8 -3
-25 -1 -36 6 -17 9 -21 8 -21 -5 0 -8 7 -15 15 -15 13 0 11 -6 -7 -30 -14 -19
-24 -26 -29 -19 -4 6 -12 9 -17 5 -6 -4 -20 -1 -31 6 -15 9 -23 9 -35 -1 -10
-8 -16 -9 -16 -3 0 6 -10 12 -22 14 -15 2 -24 11 -26 26 -2 12 -10 22 -18 22
-17 0 -18 -12 -1 -29 10 -11 9 -14 -1 -18 -6 -3 -10 -9 -6 -14 7 -12 2 -12
-42 7 -35 15 -39 15 -50 0 -16 -23 -22 -20 -17 12 l4 27 -14 -24 c-14 -24 -15
-24 -26 -3 -6 11 -11 34 -11 51 0 16 -4 33 -10 36 -16 10 -50 -15 -50 -37 0
-12 -3 -19 -6 -15 -3 3 -17 2 -30 -4 -19 -7 -26 -5 -30 6 -4 8 -11 15 -16 15
-6 0 -8 -7 -4 -15 3 -8 0 -15 -7 -15 -7 0 -4 -7 7 -15 10 -7 15 -19 11 -25 -5
-8 -13 -5 -26 9 -21 22 -39 27 -39 11 0 -6 -8 -5 -20 2 -11 7 -20 19 -20 27 0
11 -4 11 -19 -3 -11 -10 -29 -15 -44 -12 -16 3 -33 -3 -47 -16 -12 -11 -29
-21 -38 -23 -12 -1 -16 -10 -14 -29 2 -14 -2 -34 -7 -44 -6 -9 -11 -12 -11 -4
0 14 -20 17 -20 3 0 -5 9 -13 20 -16 11 -4 18 -10 15 -15 -14 -22 51 -36 82
-17 6 4 18 0 26 -8 14 -13 16 -13 20 3 4 16 5 16 6 0 0 -10 7 -18 14 -19 6 0
2 -4 -10 -9 -12 -5 -24 -21 -28 -39 -7 -34 -28 -40 -56 -15 -14 13 -21 13 -41
3 -13 -7 -29 -19 -36 -28 -10 -14 -11 -12 -6 12 5 21 1 37 -15 58 -12 16 -17
29 -11 29 26 0 6 19 -30 28 -41 10 -49 5 -28 -16 9 -9 8 -12 -4 -12 -9 0 -19
-7 -22 -16 -4 -10 -2 -13 6 -8 7 5 8 3 3 -6 -5 -7 -11 -27 -15 -44 l-7 -31
-11 25 c-6 14 -11 21 -11 16 -1 -5 -8 -3 -16 4 -11 9 -15 9 -15 1 0 -18 -44
-58 -58 -53 -7 2 -12 -1 -12 -7 0 -6 5 -11 10 -11 6 0 10 -7 10 -16 0 -8 5
-12 10 -9 6 3 10 -1 10 -9 0 -11 9 -16 29 -16 17 0 33 -5 37 -11 4 -8 9 -7 15
2 6 10 9 8 9 -7 0 -12 7 -27 15 -34 26 -21 17 -33 -20 -26 -40 8 -43 1 -14
-33 21 -25 74 -37 94 -21 9 8 11 4 8 -14 -4 -18 0 -26 17 -31 21 -7 33 2 43
30 6 16 37 -15 37 -36 0 -10 -11 -24 -25 -32 l-26 -13 36 -14 c19 -7 35 -20
35 -27 0 -7 9 -13 19 -13 11 0 28 -3 38 -7 16 -6 16 -5 4 10 -7 9 -17 15 -21
12 -5 -3 -11 -1 -14 4 -9 14 33 24 48 12 8 -7 16 -7 23 0 6 6 19 6 39 -1 27
-11 28 -12 11 -25 -11 -8 -26 -11 -35 -8 -10 3 0 -6 20 -21 20 -14 48 -26 62
-26 16 0 26 -6 26 -15 0 -18 -1 -18 -37 -4 -50 20 -73 19 -73 -2 0 -10 -4 -19
-9 -19 -13 0 -32 26 -24 33 3 4 -1 7 -10 7 -13 0 -14 -6 -7 -29 4 -16 5 -33 2
-36 -4 -4 8 -4 26 0 50 11 37 -8 -18 -26 l-50 -16 -32 28 c-18 16 -40 29 -48
29 -8 0 -30 13 -47 29 -30 25 -32 30 -24 59 5 18 8 32 7 32 -2 0 -17 -7 -34
-16 -38 -18 -42 -50 -9 -63 12 -5 35 -23 51 -40 20 -21 36 -29 48 -25 23 7 24
-15 1 -32 -16 -12 -16 -13 9 -14 14 0 33 -3 42 -6 22 -8 20 -34 -1 -34 -15 0
-16 -2 -3 -10 23 -14 0 -43 -43 -55 -38 -11 -72 -35 -48 -35 7 0 10 -4 7 -9
-4 -5 0 -11 6 -14 14 -5 2 -11 -42 -21 -34 -7 -69 -36 -52 -42 6 -3 12 -12 12
-20 0 -8 5 -14 10 -14 6 0 10 -4 10 -10 0 -6 -9 -6 -25 0 -16 6 -26 6 -31 -2
-7 -11 13 -28 34 -28 11 0 17 -14 13 -34 -1 -5 6 -25 16 -43 15 -29 22 -33 45
-27 35 7 38 -14 7 -42 -16 -14 -23 -15 -26 -6 -3 6 -12 12 -21 12 -10 0 -5
-10 18 -30 30 -27 36 -29 55 -16 17 11 25 12 45 1 13 -7 39 -12 57 -10 31 2
50 -15 37 -36 -3 -5 2 -12 10 -15 25 -10 19 -25 -7 -19 -15 4 -32 -1 -49 -14
-17 -14 -33 -19 -45 -14 -16 6 -16 5 -5 -9 10 -13 11 -22 2 -37 -14 -27 3 -61
31 -61 16 0 19 4 14 20 -6 20 -6 20 29 3 37 -17 47 -33 22 -33 -8 0 -17 -7
-20 -16 -3 -9 -12 -14 -20 -11 -10 4 -12 0 -9 -14 3 -11 14 -19 25 -19 14 0
18 5 14 15 -7 19 4 19 18 0 9 -12 39 -20 90 -24 4 -1 6 -8 3 -16 -9 -23 8 -26
47 -10 49 21 86 20 87 -2 0 -16 1 -16 8 1 5 14 10 16 15 8 9 -15 53 -16 62 -1
4 7 -1 16 -10 21 -16 9 -16 11 -1 28 9 10 18 26 19 35 1 9 9 21 17 27 10 7 5
8 -19 4 -44 -8 -78 9 -61 30 9 11 8 14 -2 14 -18 -1 -49 -24 -49 -37 0 -6 -8
-17 -17 -24 -15 -13 -16 -11 -10 20 4 18 7 38 7 43 0 6 8 4 17 -3 15 -12 16
-12 11 3 -5 11 0 18 15 22 12 3 23 1 25 -4 5 -13 67 49 85 85 8 17 50 66 93
110 70 72 85 82 132 93 70 16 107 15 121 -2 10 -12 9 -13 -7 -9 -14 3 -27 -4
-42 -25 -29 -39 -29 -45 -3 -47 12 -1 19 3 16 8 -4 6 1 8 11 4 10 -4 22 -7 28
-7 7 0 6 -5 -1 -14 -19 -23 5 -29 41 -12 17 9 37 16 45 16 26 0 13 18 -17 22
-23 4 -30 0 -33 -16 -3 -14 -5 -10 -6 10 -1 33 16 55 59 74 14 6 36 17 50 25
14 8 42 15 63 15 33 0 38 -3 32 -19 -4 -13 0 -20 14 -24 11 -3 22 0 23 5 2 6
13 8 26 4 12 -4 20 -12 17 -17 -4 -5 1 -12 10 -15 12 -5 13 -9 4 -21 -10 -11
-9 -18 5 -31 16 -16 16 -15 14 8 -3 23 0 25 32 24 19 0 38 4 41 9 8 11 69 -28
69 -44 0 -5 -9 -14 -20 -21 -25 -16 -26 -29 -2 -22 14 5 15 4 2 -5 -8 -5 -25
-8 -38 -4 -20 5 -22 2 -19 -18 2 -13 8 -32 12 -43 5 -12 3 -21 -6 -27 -11 -7
-9 -9 7 -9 28 0 40 31 19 46 -14 11 -14 12 1 18 27 10 29 7 30 -39 1 -53 11
-67 30 -41 14 20 14 20 29 0 8 -10 13 -24 10 -31 -2 -6 2 -16 8 -21 9 -8 13 0
14 29 2 21 -2 39 -7 39 -16 0 -12 21 8 43 9 11 11 17 5 13 -7 -4 -13 -3 -13 2
0 18 12 19 51 5 23 -7 50 -11 61 -7 29 9 20 -27 -12 -43 -29 -14 -40 -9 -40
19 0 21 0 21 -25 -2 -25 -24 -25 -40 1 -40 18 0 44 -24 44 -39 0 -6 -4 -11
-10 -11 -5 0 -10 5 -10 11 0 5 -5 7 -10 4 -8 -5 -7 -11 1 -21 9 -11 8 -14 -7
-14 -17 0 -16 -3 5 -19 13 -10 31 -16 40 -14 9 2 30 -1 46 -8 l30 -11 -27 -10
c-20 -7 -36 -5 -62 7 -28 13 -41 14 -76 5 -31 -8 -45 -8 -56 1 -19 15 -18 40
1 33 16 -6 19 10 7 36 -13 28 -38 19 -52 -18 -11 -32 -11 -37 6 -49 17 -12 17
-13 -3 -13 -27 0 -40 -18 -19 -26 9 -3 13 -10 10 -15 -3 -5 1 -6 9 -3 8 3 19
-2 26 -9 9 -12 8 -16 -4 -21 -9 -3 -15 -18 -15 -35 0 -24 -3 -28 -20 -24 -16
4 -18 8 -9 19 11 14 10 15 -11 18 -5 0 -19 9 -30 19 -25 21 -30 21 -30 2 0
-15 -16 -18 -80 -16 -27 2 -42 10 -66 38 -21 24 -36 33 -44 28 -10 -6 -8 -10
9 -17 27 -10 17 -32 -11 -25 -17 5 -19 2 -14 -19 6 -23 5 -24 -14 -14 -16 8
-20 8 -20 -4 0 -8 5 -16 12 -18 19 -7 -3 -30 -23 -25 -21 6 -25 -3 -8 -20 17
-17 1 -33 -34 -34 -24 -1 -26 -3 -9 -6 12 -2 22 -9 22 -15 0 -5 -7 -8 -15 -4
-18 6 -19 2 -4 -26 8 -15 13 -17 19 -8 4 7 13 9 19 5 9 -5 9 -11 2 -19 -13
-15 6 -34 55 -59 32 -16 63 -47 47 -47 -5 0 -18 6 -29 14 -11 8 -34 16 -49 18
-24 2 -32 -2 -43 -26 -13 -26 -16 -27 -24 -12 -7 13 -17 16 -34 12 -13 -4 -24
-2 -24 3 0 13 -29 3 -54 -18 -18 -15 -19 -15 -13 2 4 10 7 21 7 23 0 2 6 4 13
4 18 0 37 65 37 128 0 82 -30 80 -35 -2 -4 -69 -15 -106 -35 -116 -15 -8 -20
-5 -28 18 -14 39 -47 76 -60 68 -9 -5 -9 -13 -1 -28 10 -18 8 -24 -12 -39 -23
-17 -23 -18 -4 -24 44 -14 50 -22 47 -63 -3 -46 7 -56 58 -57 32 0 35 -2 35
-30 0 -20 5 -30 15 -30 17 -1 15 -26 -3 -37 -13 -8 -29 11 -21 24 8 12 -10 10
-23 -3 -8 -8 -19 -6 -41 5 -29 15 -32 15 -41 -2 -9 -15 -12 -15 -21 -2 -13 19
-13 53 0 45 6 -3 10 -2 10 4 0 5 -4 13 -10 16 -5 3 -10 1 -10 -4 0 -6 -7 -11
-16 -11 -9 0 -18 -9 -21 -20 -3 -12 -14 -20 -26 -20 -16 0 -18 3 -9 12 14 14
16 48 4 48 -11 0 -48 -40 -44 -47 2 -3 1 -7 -2 -10 -3 -4 -6 -1 -6 5 0 7 -4
12 -10 12 -5 0 -10 -7 -10 -15 0 -8 -11 -17 -25 -21 -14 -3 -22 -11 -18 -17 4
-6 0 -8 -11 -4 -10 4 -15 3 -11 -3 3 -6 1 -10 -5 -10 -7 0 -10 -6 -7 -12 2 -7
-3 -18 -12 -25 -15 -11 -15 -12 0 -13 22 0 30 -37 30 -121 0 -52 4 -69 16 -73
11 -4 14 -2 10 9 -5 11 0 13 26 9 35 -6 97 -32 97 -40 0 -15 -23 -44 -35 -44
-7 0 -27 11 -43 25 -17 14 -36 25 -43 25 -8 0 1 -9 19 -20 48 -30 40 -47 -20
-42 -10 1 -18 -3 -18 -9 0 -6 -9 -9 -20 -6 -11 3 -20 1 -20 -4 0 -6 28 -8 65
-6 39 3 68 0 72 -6 3 -5 1 -7 -5 -3 -6 3 -13 2 -17 -4 -3 -5 -17 -10 -31 -10
-13 0 -24 -5 -24 -11 0 -7 12 -10 30 -7 16 2 32 0 35 -6 3 -7 7 -6 11 2 3 7
17 25 30 40 l23 27 1 -25 c1 -24 2 -24 12 -4 15 32 55 51 71 35 9 -10 8 -15
-8 -27 -18 -13 -37 -80 -49 -171 -1 -13 -6 -26 -9 -30 -4 -3 -7 -16 -7 -28 0
-11 -5 -26 -12 -33 -7 -7 -8 -12 -2 -12 18 0 34 24 34 51 0 15 5 31 10 34 6 3
10 23 10 43 0 20 3 54 7 75 5 34 11 41 50 58 33 14 45 25 49 47 5 24 56 92 69
92 2 0 1 -10 -3 -22 -4 -17 -2 -20 11 -15 30 11 21 -48 -12 -86 -26 -29 -27
-33 -10 -34 13 -1 19 5 19 18 0 21 10 25 26 9 7 -7 11 1 12 22 2 28 6 62 11
91 0 4 7 7 14 7 18 0 38 -45 30 -67 -6 -15 -5 -16 9 -3 14 13 13 18 -3 47 -10
18 -15 33 -12 33 4 0 -3 7 -15 16 -40 28 -25 55 39 73 34 10 65 27 80 43 32
36 63 41 67 11 2 -13 7 -23 12 -23 10 0 0 43 -13 51 -5 4 -7 12 -3 17 4 8 19
6 48 -4 54 -19 83 -18 143 5 28 10 63 21 78 25 26 6 27 5 17 -15 -7 -11 -17
-48 -24 -82 -11 -51 -11 -70 1 -109 7 -25 13 -66 13 -90 -1 -24 2 -61 5 -84 5
-31 0 -60 -23 -126 -17 -47 -28 -89 -25 -92 14 -13 34 -5 43 19 12 31 17 31
47 3 20 -18 23 -19 23 -5 0 10 -12 23 -26 29 -19 9 -24 17 -19 32 39 137 44
231 18 323 -15 50 -14 55 6 107 26 63 49 86 111 113 25 11 56 32 69 47 14 14
34 26 46 26 24 0 46 34 42 65 -1 12 5 21 17 23 14 3 17 0 13 -12 -4 -10 -1
-19 9 -23 20 -7 31 4 16 19 -8 8 -7 14 3 24 16 16 71 19 80 4 12 -19 -5 -66
-35 -99 -20 -21 -36 -57 -49 -104 -27 -101 -49 -159 -72 -183 -25 -27 -38 -72
-29 -105 11 -37 -13 -96 -53 -133 -45 -41 -78 -106 -71 -142 3 -16 7 -31 10
-33 12 -13 38 19 51 61 12 43 50 85 78 86 6 1 13 15 16 31 8 40 36 81 54 81
21 0 35 -32 35 -80 0 -27 5 -43 15 -46 8 -4 15 -12 15 -20 0 -8 4 -14 9 -14
13 0 6 95 -9 148 -7 23 -21 49 -32 58 -10 10 -18 23 -18 30 0 8 -6 11 -15 8
-24 -10 -17 12 10 30 14 9 25 25 25 36 0 11 11 38 25 60 14 23 25 54 25 75 0
28 4 35 20 35 10 0 43 9 72 19 29 10 73 19 98 20 42 1 46 -1 58 -31 9 -25 15
-29 24 -20 8 8 27 -11 79 -81 139 -189 129 -170 129 -239 0 -68 18 -108 48
-108 21 0 28 -65 10 -88 -7 -8 -13 -20 -14 -26 -3 -32 -5 -36 -15 -36 -5 0 -8
3 -6 8 3 4 -6 8 -19 8 -18 2 -26 -4 -30 -22 -3 -13 -10 -24 -15 -24 -5 0 -9
-11 -9 -25 0 -37 -21 -74 -44 -77 -17 -2 -21 -9 -18 -36 2 -27 -2 -34 -23 -42
-37 -14 -34 -50 4 -50 39 0 65 24 109 100 42 72 66 86 76 45 6 -22 9 -25 21
-15 8 7 15 27 15 46 0 18 6 48 14 66 8 18 25 62 38 97 l23 63 63 -5 c48 -4 65
-2 69 9 3 8 17 14 32 14 15 0 31 4 37 8 5 5 31 7 57 4 46 -4 48 -5 27 -19 -16
-11 -19 -18 -10 -27 8 -8 13 -7 20 4 7 12 13 10 37 -10 24 -22 25 -22 9 -2
-20 23 -9 31 12 10 17 -17 15 -41 -3 -34 -44 18 -49 17 -26 -3 l23 -21 -24 0
c-13 0 -28 -4 -34 -9 -5 -6 -29 -12 -54 -14 -36 -3 -41 -5 -23 -11 18 -7 21
-12 12 -27 -5 -10 -16 -19 -24 -19 -16 0 -75 -32 -75 -42 0 -12 45 4 76 28 24
18 34 20 44 11 10 -10 11 -7 6 10 -6 19 -1 24 43 37 57 17 128 11 152 -13 14
-15 14 -19 -3 -46 -10 -16 -18 -37 -18 -46 0 -21 -50 -79 -67 -79 -7 0 -22 -5
-32 -12 -15 -9 -24 -8 -44 5 -27 18 -41 10 -31 -17 4 -11 -2 -17 -23 -21 -46
-11 -50 -13 -20 -14 15 -1 39 6 53 15 32 21 43 11 18 -17 -19 -22 -19 -22 5
-9 34 18 54 -8 39 -51 -11 -31 -5 -59 11 -59 5 0 18 17 28 38 18 38 49 51 47
20 -1 -10 4 -18 11 -18 18 0 27 -28 15 -50 -8 -16 -8 -18 5 -14 11 5 15 -1 15
-25 0 -28 5 -34 44 -51 24 -10 47 -23 50 -29 4 -6 18 -11 31 -11 13 0 30 -8
37 -19 7 -10 24 -21 38 -25 17 -5 21 -4 11 2 -7 5 -11 14 -7 20 3 5 -4 22 -16
38 -16 19 -18 29 -10 32 7 2 20 11 28 20 13 12 20 13 33 4 33 -24 71 -42 71
-35 0 5 -14 16 -30 25 -17 9 -30 25 -30 35 0 10 -7 28 -15 40 -12 16 -12 23
-2 27 6 3 0 3 -14 0 -14 -3 -44 1 -67 9 -23 8 -42 11 -42 7 0 -5 6 -10 13 -13
6 -2 8 -8 4 -13 -4 -4 -17 -3 -27 4 -33 20 -34 13 -1 -17 40 -38 41 -61 2 -61
-31 0 -35 5 -47 72 -5 30 -3 39 10 44 22 8 20 36 -4 67 -23 28 -24 44 -10 83
10 26 11 26 25 8 14 -18 14 -18 15 4 0 18 6 22 31 22 20 0 29 4 26 13 -2 7
-17 11 -35 9 -40 -4 -43 18 -7 46 18 15 36 19 66 16 24 -2 38 0 34 6 -3 6 -14
10 -23 11 -32 2 32 17 76 18 54 1 130 -36 165 -81 52 -65 56 -68 100 -68 51 0
87 -23 190 -122 l68 -64 -15 -42 c-14 -40 -14 -43 9 -70 13 -16 54 -44 91 -62
36 -18 83 -50 103 -71 51 -52 79 -57 136 -25 26 14 63 28 83 32 55 10 71 21
80 57 12 46 41 47 81 2 17 -20 31 -43 31 -51 0 -27 29 -72 51 -79 29 -9 107
-82 124 -115 29 -55 48 -157 50 -270 2 -64 -2 -120 -7 -127 -5 -7 -12 -40 -16
-75 -4 -51 -10 -68 -34 -91 -34 -34 -38 -85 -9 -111 16 -14 18 -23 10 -49 -6
-18 -11 -66 -13 -107 -3 -85 -28 -141 -88 -195 -18 -16 -30 -26 -27 -21 4 4
-4 18 -17 32 -22 21 -24 29 -18 73 11 85 -43 146 -130 146 -42 0 -104 -36
-105 -61 -1 -6 -14 -30 -31 -52 -16 -23 -30 -45 -30 -49 -1 -5 -19 -28 -42
-53 -39 -43 -44 -40 -22 15 7 20 7 20 -14 1 -12 -10 -20 -21 -19 -25 4 -15
-34 -91 -43 -86 -29 18 22 205 56 205 7 0 26 8 41 18 22 14 28 24 26 51 -1 19
-5 37 -10 40 -4 3 -13 15 -19 26 -15 27 -41 31 -64 10 -11 -10 -26 -14 -38
-11 -14 5 -22 -1 -30 -19 -7 -14 -12 -33 -12 -41 0 -8 -4 -13 -9 -10 -5 4 -5
-10 0 -32 7 -30 5 -40 -10 -52 -10 -8 -21 -21 -23 -29 -3 -9 -15 4 -31 33 -15
27 -24 53 -20 59 4 6 -2 8 -14 5 -16 -4 -24 2 -38 31 -10 20 -21 49 -26 64 -7
25 -5 28 20 33 16 4 34 17 42 30 7 13 15 24 18 24 3 0 7 21 9 48 4 72 -41 111
-112 98 -32 -6 -86 -61 -86 -87 0 -43 51 -119 81 -119 4 0 10 -19 14 -42 4
-24 15 -57 25 -75 l19 -32 -32 -23 c-22 -15 -28 -17 -18 -5 17 22 7 34 -14 17
-12 -10 -22 -5 -59 31 -31 31 -42 48 -37 59 5 8 11 29 15 45 l6 30 -15 -25
c-8 -14 -14 -33 -15 -42 0 -26 -14 -22 -30 7 -10 19 -11 30 -2 50 7 15 8 25 2
25 -6 0 -10 -6 -10 -14 0 -24 -20 -29 -36 -10 -23 31 -27 62 -10 79 9 9 16 14
16 10 0 -3 6 0 14 7 11 10 11 16 2 27 -9 12 -8 13 7 8 11 -4 16 -3 12 3 -3 5
-1 18 5 29 7 13 7 22 0 26 -6 4 -8 11 -5 16 4 5 1 9 -5 9 -6 0 -8 5 -5 10 3 5
1 10 -6 10 -7 0 -10 3 -6 6 8 8 -16 33 -25 27 -5 -2 -8 1 -8 7 0 6 -4 8 -10 5
-5 -3 -10 -2 -10 3 0 13 -33 10 -42 -3 -5 -6 -8 -5 -8 3 0 6 -9 12 -20 12 -11
0 -20 -5 -20 -11 0 -5 -5 -7 -12 -3 -7 5 -9 2 -5 -9 4 -12 2 -14 -11 -10 -9 3
-14 3 -10 -2 4 -4 -1 -16 -13 -26 -14 -12 -16 -18 -7 -22 9 -4 10 -8 2 -14 -6
-4 -9 -17 -7 -28 3 -11 5 -28 6 -37 1 -10 6 -18 11 -18 5 0 7 -3 3 -6 -10 -10
17 -32 32 -26 9 3 12 1 7 -6 -5 -8 -2 -10 8 -6 10 4 16 1 16 -7 0 -11 3 -11
10 1 8 12 10 12 10 1 0 -10 3 -11 13 -3 9 8 21 -3 49 -46 l37 -57 -27 -77
c-24 -70 -42 -98 -42 -67 0 7 -13 34 -30 61 -16 26 -31 63 -32 81 -1 17 -4 -8
-7 -58 l-6 -90 -18 56 c-22 64 -33 86 -42 77 -4 -3 3 -28 15 -55 12 -26 24
-78 27 -114 5 -56 3 -67 -12 -73 -11 -4 -23 2 -37 19 -11 14 -26 31 -33 39
-12 12 -12 16 0 26 19 16 19 30 0 30 -8 0 -15 -4 -15 -10 0 -17 -20 -11 -58
17 l-37 27 33 -35 33 -36 -35 -41 -34 -42 -18 53 c-9 28 -19 56 -22 62 -4 5
-5 26 -3 45 4 52 -8 31 -25 -41 -8 -35 -22 -81 -31 -103 l-17 -38 -23 26 c-13
15 -23 33 -23 40 0 7 -14 25 -31 42 l-31 29 15 -31 c19 -37 31 -94 19 -94 -12
0 -62 112 -63 140 0 23 -1 23 -8 5 -5 -11 -14 -40 -22 -65 -8 -27 -20 -45 -29
-45 -9 0 -15 -10 -16 -26 -1 -14 -6 -34 -13 -45 -11 -17 -12 -15 -6 11 l6 30
-31 -35 -31 -35 16 32 c8 17 19 35 25 38 6 4 8 11 4 16 -3 6 -11 3 -18 -7 -16
-21 -40 -9 -33 17 3 11 1 17 -4 13 -5 -3 -9 -15 -9 -27 0 -13 -3 -18 -10 -11
-6 6 -5 31 4 69 8 33 14 67 14 75 0 8 3 29 6 45 6 24 5 26 -4 13 -8 -13 -19
-15 -48 -11 -20 3 -39 7 -41 9 -10 9 33 56 63 68 39 16 51 34 60 94 7 48 2 51
-53 23 -52 -27 -64 -45 -58 -83 4 -21 -1 -47 -13 -73 -11 -22 -21 -48 -24 -57
-3 -10 -9 -18 -13 -18 -4 0 -28 38 -52 83 -31 57 -66 102 -114 149 -64 62 -68
68 -53 83 23 23 21 82 -3 94 -10 6 -21 24 -24 40 -8 41 -48 66 -84 54 -18 -6
-38 -6 -56 1 -39 15 -81 -9 -85 -49 -2 -17 -12 -38 -23 -48 -24 -23 -24 -69 0
-91 10 -9 21 -30 25 -46 8 -42 49 -67 83 -51 20 9 33 9 55 0 23 -9 32 -8 53 5
14 9 25 23 25 31 0 28 18 15 100 -72 100 -106 164 -224 154 -283 -10 -62 -12
-65 -34 -45 -11 10 -20 28 -20 41 0 13 -10 32 -22 44 -22 20 -22 21 -5 50 14
23 15 34 7 50 -6 11 -14 20 -18 20 -4 -1 -22 -32 -41 -70 -28 -58 -38 -70 -58
-70 -15 0 -22 4 -18 11 4 5 -11 27 -33 47 -29 27 -42 48 -45 72 l-4 35 -1 -37
c-1 -23 -7 -38 -14 -38 -7 0 -35 -11 -62 -25 -58 -29 -56 -29 -56 -11 0 8 -7
16 -15 20 -8 3 -15 13 -15 23 -1 16 -2 16 -12 -2 -7 -11 -13 -32 -15 -47 -2
-24 -34 -68 -48 -68 -3 0 -5 9 -5 21 0 15 -5 19 -16 15 -15 -6 -15 2 4 54 5
13 3 13 -11 1 -18 -15 -18 -21 -2 81 7 44 -10 23 -52 -64 -17 -37 -33 -49 -33
-26 0 6 -10 3 -21 -8 l-21 -19 7 35 c4 21 19 45 36 58 56 45 29 122 -43 122
-48 0 -61 -25 -54 -100 6 -58 4 -68 -13 -84 -17 -15 -23 -16 -36 -6 -8 7 -15
22 -15 33 0 11 -3 18 -6 14 -4 -3 -15 4 -25 16 -22 26 -25 11 -4 -17 20 -26
20 -60 0 -52 -10 3 -15 -1 -15 -11 0 -30 -18 0 -22 37 -4 32 -5 31 -12 -17
-10 -63 -32 -70 -66 -23 -17 24 -21 39 -16 65 4 22 3 35 -3 35 -11 0 -15 -13
-26 -83 -5 -32 -9 -37 -26 -32 -16 5 -19 1 -20 -27 0 -18 -4 -41 -8 -52 -6
-17 -9 -16 -25 9 -10 14 -20 42 -23 60 -5 29 -8 32 -19 20 -8 -7 -13 -22 -12
-32 1 -10 -3 -44 -11 -76 -10 -48 -15 -56 -27 -46 -8 6 -18 25 -22 42 -7 28
-9 29 -24 13 -15 -15 -17 -15 -23 4 -7 22 -44 27 -63 8 -7 -7 -12 -24 -12 -39
0 -27 15 -39 51 -39 10 0 19 -4 19 -10 0 -5 -7 -10 -15 -10 -8 0 -15 -6 -15
-14 0 -20 -27 -27 -40 -11 -6 8 -9 23 -6 33 5 15 1 21 -20 26 -35 9 -39 3 -24
-33 11 -27 9 -34 -11 -63 -42 -61 -66 -64 -65 -10 1 57 -17 53 -36 -7 -24 -75
-34 -81 -42 -28 -4 25 -18 67 -31 94 -28 55 -32 52 -9 -7 9 -22 13 -47 10 -56
-5 -14 -9 -13 -26 7 -22 27 -25 22 -10 -17 11 -27 5 -64 -9 -64 -4 0 -14 11
-21 25 -7 14 -16 25 -19 25 -3 0 -17 -16 -30 -36 -27 -39 -69 -68 -58 -41 4
11 2 14 -9 10 -27 -10 -17 46 11 59 14 6 25 15 25 19 0 4 18 24 40 45 32 31
40 45 40 74 -1 39 -14 61 -47 78 -34 18 -70 14 -93 -10 -23 -25 -40 -78 -30
-93 3 -5 4 -36 2 -67 -3 -45 -8 -58 -23 -63 -10 -4 -26 -13 -34 -21 -42 -43
-30 33 16 98 27 38 23 48 -6 16 -14 -15 -25 -31 -25 -36 0 -5 -7 -16 -16 -23
-9 -8 -25 -33 -35 -56 -10 -24 -21 -43 -24 -43 -3 0 -5 16 -5 36 0 27 8 42 33
66 22 20 25 27 10 19 -37 -19 -46 -14 -40 22 4 21 0 44 -12 66 l-19 35 28 28
c33 32 49 86 30 98 -7 4 -10 13 -6 19 7 11 -27 51 -43 51 -5 0 -11 4 -13 8 -5
13 -68 23 -68 11 0 -6 -8 -8 -18 -5 -12 4 -26 -2 -40 -17 -42 -44 -27 -155 24
-182 44 -23 44 -24 18 -75 -29 -58 -49 -64 -58 -16 -4 19 -19 46 -34 61 -23
23 -32 26 -65 21 -22 -4 -44 -12 -51 -19 -25 -25 -40 -82 -28 -102 13 -20 10
-37 -10 -57 -11 -11 -25 -18 -31 -15 -16 6 -41 92 -34 120 3 12 10 40 16 62 6
22 11 83 11 136 0 57 6 117 16 149 17 59 15 149 -7 218 -13 42 -13 42 21 71
l34 28 -3 124 c-1 68 -5 128 -9 133 -3 5 -5 58 -3 118 1 83 -2 115 -15 139
-10 20 -14 43 -10 61 8 39 -6 63 -54 93 -22 14 -40 31 -40 38 0 7 -18 23 -40
36 l-40 22 0 63 c0 74 -17 101 -87 143 l-45 26 -53 -17 c-74 -23 -115 -70
-116 -134 0 -40 -2 -44 -11 -25 -6 12 -24 26 -39 32 -35 12 -35 15 -8 66 12
22 30 63 40 92 20 59 91 168 117 181 9 5 32 9 51 11 48 2 127 48 163 93 36 47
51 94 52 169 1 46 -4 63 -28 98 -43 62 -94 85 -173 78 l-63 -5 0 48 c0 139
-83 250 -187 250 -80 0 -162 -90 -184 -201 l-12 -60 -18 52 c-48 135 -204 208
-293 138 -75 -59 -96 -204 -44 -309 56 -113 146 -190 223 -190 55 0 80 -27 95
-105 6 -33 32 -104 56 -157 24 -54 44 -104 44 -113 0 -9 7 -45 16 -81 l16 -64
-26 -21 c-59 -46 -65 -84 -57 -339 4 -109 -4 -141 -38 -167 -13 -9 -13 -14 -4
-24 10 -10 16 -9 29 2 15 12 16 10 10 -27 -6 -36 -5 -42 13 -47 16 -4 21 -14
22 -44 1 -21 1 -41 0 -45 0 -4 4 -19 9 -34 8 -19 15 -25 30 -21 15 4 20 0 20
-14 0 -20 24 -26 35 -9 3 6 18 10 34 10 23 0 31 -8 54 -56 25 -49 26 -58 14
-73 -8 -9 -22 -50 -30 -91 -9 -41 -21 -100 -28 -130 -15 -67 -7 -116 27 -166
17 -25 30 -62 37 -108 9 -66 9 -70 -13 -88 -12 -10 -27 -18 -34 -18 -17 0 -47
-72 -41 -100 3 -20 -4 -32 -34 -57 l-39 -32 -25 32 c-37 49 -87 153 -87 183 0
21 4 25 20 21 11 -3 20 -1 20 4 0 5 6 9 13 9 21 0 56 74 45 94 -5 9 -7 20 -4
25 7 10 -48 60 -67 62 -62 6 -94 -9 -115 -54 -17 -36 -19 -49 -9 -78 6 -20 25
-45 41 -57 50 -35 90 -170 62 -207 -14 -20 -15 -20 -38 3 -35 32 -47 27 -14
-7 23 -24 27 -35 21 -60 -11 -53 -31 -50 -25 4 2 19 1 19 -23 -3 -21 -20 -25
-21 -31 -7 -10 27 -7 54 9 85 15 29 14 30 -29 73 -64 65 -106 126 -106 156 0
21 2 23 11 11 7 -10 12 -11 15 -3 3 6 14 21 24 33 26 30 33 56 26 95 -6 30
-55 94 -74 96 -4 0 -15 2 -24 4 -10 2 -20 0 -23 -5 -2 -4 -16 -5 -30 -2 -15 2
-25 0 -25 -7 0 -7 -3 -10 -7 -8 -5 3 -14 -1 -21 -9 -7 -8 -10 -14 -7 -14 4 0
-1 -7 -10 -16 -9 -9 -14 -23 -11 -30 3 -8 1 -14 -5 -14 -6 0 -8 -4 -5 -9 3 -5
-5 -12 -18 -15 -54 -13 -75 -76 -38 -109 27 -25 78 -22 96 5 9 12 16 16 16 9
0 -8 6 -11 15 -7 8 3 15 0 15 -7 0 -8 4 -6 10 3 6 10 10 11 10 3 0 -7 9 -13
20 -13 13 0 27 -12 38 -32 9 -18 44 -61 76 -95 56 -60 59 -65 46 -88 -7 -13
-16 -22 -21 -20 -4 3 -11 -14 -15 -37 -5 -34 -8 -39 -14 -23 -4 11 -5 25 -3
32 3 6 0 20 -7 30 -9 14 -10 8 -7 -35 2 -29 1 -55 -4 -57 -8 -6 -16 31 -18 84
-2 50 -11 52 -11 3 0 -23 -4 -42 -9 -42 -8 0 -26 46 -23 60 0 3 3 19 7 35 6
27 5 28 -6 10 -7 -10 -18 -37 -24 -60 -8 -26 -18 -39 -27 -37 -11 2 -17 -11
-21 -43 -4 -25 -12 -55 -18 -67 -11 -20 -12 -20 -21 -3 -6 10 -10 56 -10 104
l1 86 -23 -49 -22 -49 -14 34 c-18 46 -17 45 -41 18 l-21 -24 6 25 c7 23 6 24
-8 7 -8 -11 -12 -25 -10 -32 3 -7 1 -16 -5 -20 -6 -3 -11 -1 -11 6 0 8 -6 6
-18 -4 -27 -25 -31 -21 -25 25 4 29 3 39 -5 34 -16 -10 -16 44 0 95 6 22 8 42
5 46 -11 11 -18 -2 -23 -48 -6 -53 -24 -108 -41 -130 -7 -8 -13 -33 -14 -55
l-1 -39 -13 30 c-8 17 -14 48 -15 70 0 23 -4 35 -8 28 -6 -9 -12 -7 -25 7 -9
11 -17 25 -17 30 0 6 -4 10 -10 10 -15 0 -12 -15 9 -52 10 -18 17 -44 16 -58
-2 -14 -4 -29 -4 -34 -1 -6 -15 3 -32 20 -26 25 -30 34 -26 67 3 20 2 37 -2
37 -7 0 -19 -31 -36 -98 -5 -17 -11 -21 -27 -16 -17 5 -18 3 -9 -14 14 -26 14
-43 1 -78 l-11 -27 -16 24 c-21 31 -35 40 -50 34 -9 -3 -11 8 -7 43 6 44 5 46
-9 27 -9 -11 -17 -28 -17 -37 0 -10 -4 -18 -10 -18 -17 0 -11 15 30 73 22 32
35 57 31 57 -13 0 -58 -56 -66 -80 -3 -11 -10 -20 -14 -20 -12 0 -12 43 0 87
9 33 9 46 -1 58 -19 23 -47 18 -66 -10 -16 -24 -16 -27 1 -45 10 -11 24 -20
32 -20 15 0 17 -19 3 -40 -8 -12 -10 -10 -11 10 -1 22 -3 20 -20 -15 -11 -24
-19 -32 -19 -21 0 15 -3 16 -15 6 -18 -15 -17 -15 -37 26 -9 19 -12 38 -7 51
7 19 -14 66 -23 53 -2 -3 -18 -24 -36 -47 -17 -23 -32 -46 -32 -51 0 -5 -7
-15 -15 -22 -18 -15 -18 -11 -5 27 9 26 9 27 -5 9 -8 -11 -15 -28 -15 -37 0
-10 -4 -21 -10 -24 -5 -3 -10 0 -10 8 0 8 -7 20 -16 28 -13 11 -14 9 -9 -14 5
-18 3 -27 -5 -27 -9 0 -11 11 -7 35 3 19 2 37 -3 40 -4 2 -11 21 -14 40 -4 19
-11 35 -16 35 -6 0 -6 -10 0 -26 14 -36 12 -47 -6 -40 -12 5 -14 1 -9 -15 10
-30 -13 -51 -47 -43 -28 6 -29 5 -18 -15 14 -26 4 -47 -15 -31 -20 17 -24 62
-8 93 8 16 12 31 9 34 -3 3 -8 -1 -11 -9 -4 -10 -14 -14 -26 -11 -12 3 -32 -6
-54 -26 -42 -36 -55 -39 -55 -10 0 18 -3 19 -15 9 -22 -18 -28 7 -17 71 6 30
8 56 6 58 -2 2 -13 -16 -24 -40 -10 -24 -31 -57 -45 -74 l-25 -30 6 26 c3 15
1 30 -5 33 -17 11 -13 30 14 71 15 20 24 40 21 43 -3 3 -1 11 5 18 16 20 1 71
-27 93 -31 25 -87 38 -92 22 -2 -6 -10 -11 -18 -11 -8 0 -25 -9 -37 -21 -18
-16 -22 -31 -21 -75 0 -46 4 -57 25 -72 13 -9 28 -16 32 -14 4 1 14 -4 21 -11
16 -15 -1 -42 -47 -71 -30 -20 -33 -17 -40 44 -4 33 -4 32 -5 -7 -2 -48 -10
-53 -37 -23 -12 13 -22 17 -28 11 -6 -6 -16 3 -28 27 -17 33 -18 38 -3 60 9
13 14 26 11 28 -2 3 -18 -16 -35 -41 -17 -26 -32 -40 -35 -33 -2 7 -11 -12
-20 -42 -9 -30 -21 -62 -27 -70 -16 -25 -12 5 10 67 26 74 25 87 -5 139 -26
43 -24 76 2 72 9 -2 20 6 27 17 6 11 15 23 20 26 5 4 6 14 3 22 -3 9 1 21 9
28 12 9 12 15 2 27 -7 8 -12 23 -10 34 2 10 -4 21 -12 24 -9 3 -16 14 -16 23
0 18 -52 45 -72 38 -7 -2 -21 0 -30 4 -10 6 -19 5 -23 -1 -3 -5 -17 -10 -29
-10 -15 0 -26 -7 -29 -20 -3 -11 -12 -20 -21 -20 -9 0 -16 -8 -16 -19 0 -11
-6 -21 -12 -24 -10 -3 -10 -9 -1 -24 9 -16 9 -23 0 -32 -9 -10 -8 -15 7 -26
10 -8 15 -19 11 -25 -4 -7 2 -14 14 -17 12 -3 21 -13 21 -23 0 -20 51 -43 75
-34 23 9 50 -13 69 -55 18 -39 18 -41 -3 -76 -11 -20 -21 -44 -21 -53 0 -9 -7
-26 -15 -36 -15 -19 -15 -19 -15 2 0 14 -5 20 -14 16 -11 -4 -19 11 -32 55 -9
34 -20 61 -24 61 -5 0 -3 -16 3 -35 7 -25 7 -39 0 -46 -8 -8 -13 -5 -18 10 -3
12 -13 21 -21 21 -8 0 -14 9 -14 19 0 11 -5 23 -11 26 -6 4 -8 13 -5 21 3 8
-1 17 -9 20 -8 4 -15 12 -15 19 0 12 -26 25 -61 30 -9 1 -21 5 -27 9 -6 3 -14
1 -17 -5 -4 -5 -13 -8 -20 -6 -22 9 -74 -63 -70 -99 4 -41 18 -74 30 -74 11 0
24 -28 25 -51 0 -4 -11 -7 -25 -7 -33 0 -70 66 -67 121 1 20 -2 37 -6 37 -4 0
-21 -23 -37 -50 -23 -40 -31 -47 -36 -33 -5 15 -7 14 -15 -7 -8 -24 -8 -24
-14 10 l-7 35 -16 -37 c-10 -21 -20 -38 -24 -38 -3 0 -3 23 0 51 l6 52 -23
-22 c-18 -17 -25 -19 -29 -9 -4 8 -8 5 -13 -10 -5 -18 -9 -20 -20 -11 -10 8
-14 8 -14 0 0 -6 -7 -11 -15 -11 -8 0 -15 5 -15 10 0 14 -27 12 -33 -2 -4 -10
-7 -10 -17 -1 -11 10 -16 9 -25 -4 -22 -30 -34 -5 -30 67 2 39 0 68 -4 65 -13
-8 -31 -89 -31 -140 0 -30 -4 -44 -11 -40 -6 4 -17 -1 -24 -11 -17 -23 -18
-20 -6 43 6 28 6 63 2 79 -7 27 -8 26 -15 -21 -9 -59 -31 -115 -45 -115 -15 0
-62 65 -77 107 -7 21 -13 32 -14 24 0 -7 -6 -11 -14 -8 -11 5 -13 -1 -9 -28 5
-30 2 -36 -37 -61 l-42 -28 -19 25 c-18 23 -19 33 -3 94 4 16 3 17 -5 5 -6 -8
-11 -23 -11 -32 0 -10 -5 -18 -10 -18 -6 0 -8 11 -4 26 6 21 4 25 -12 22 -13
-2 -22 -22 -35 -71 -21 -84 -34 -100 -26 -32 6 48 5 49 -10 28 l-15 -23 -24
23 c-13 12 -24 33 -24 46 0 24 -1 24 -14 6 -14 -19 -15 -19 -35 -1 -27 24 -27
12 -1 -21 25 -33 25 -41 -5 -78 l-25 -30 -6 34 -7 34 -23 -26 c-13 -15 -26
-27 -29 -27 -8 0 -6 35 4 45 5 6 5 19 1 30 -7 15 -9 16 -9 4 -1 -9 -7 -22 -15
-28 -10 -8 -13 -23 -9 -45 4 -25 1 -35 -11 -39 -19 -8 -22 23 -4 41 9 9 9 12
0 12 -7 0 -12 -3 -12 -8 0 -4 -9 -13 -20 -19 -18 -12 -19 -10 -15 25 4 34 4
36 -10 18 -8 -11 -15 -24 -15 -30 0 -5 -9 0 -21 12 -19 21 -19 27 -10 74 14
63 9 72 -9 18 -11 -35 -17 -40 -39 -38 -20 2 -27 -2 -29 -19 -4 -29 -22 -30
-22 -2 0 15 -5 19 -15 15 -8 -3 -15 -2 -15 2 0 4 -12 21 -26 37 -21 25 -23 26
-12 5 32 -54 40 -96 27 -139 -20 -67 -43 -49 -43 34 -1 35 -5 49 -14 47 -10
-2 -11 7 -6 35 4 21 11 43 16 50 5 7 5 14 -1 17 -13 8 -18 -1 -26 -49 -4 -22
-14 -52 -21 -67 -8 -15 -11 -34 -7 -44 5 -13 2 -15 -15 -10 -15 5 -22 2 -27
-14 -10 -30 -18 -25 -38 24 -10 25 -25 50 -34 57 -13 11 -13 8 1 -25 20 -47
20 -47 0 -39 -13 5 -15 1 -10 -23 3 -16 1 -36 -4 -44 -9 -13 -12 -13 -21 3 -5
9 -16 17 -24 17 -14 0 -14 24 -1 100 7 39 -1 27 -24 -39 -11 -33 -24 -49 -48
-60 -27 -13 -31 -20 -27 -41 l5 -25 -15 25 c-17 29 -20 103 -5 131 7 12 7 19
1 19 -5 0 -21 -36 -35 -80 -14 -44 -32 -87 -39 -95 -13 -12 -15 -8 -15 32 -1
25 3 54 9 65 6 11 8 22 5 25 -3 3 -11 -7 -17 -23 -9 -23 -13 -25 -16 -11 -3 9
-10 17 -18 17 -21 0 -36 -27 -30 -53 4 -14 4 -35 0 -47 -6 -20 -11 -17 -43 32
-36 52 -37 52 -42 26 -3 -15 -12 -36 -21 -46 -9 -10 -24 -33 -35 -50 -10 -18
-25 -32 -34 -32 -9 0 -21 -5 -27 -11 -8 -8 -13 -8 -17 0 -10 16 -26 13 -26 -4
0 -8 -4 -15 -10 -15 -13 0 -13 67 0 75 6 4 8 11 4 16 -3 5 -9 7 -14 4 -5 -3
-19 11 -30 32 -12 21 -19 29 -17 17 2 -11 -6 -40 -19 -65 -13 -24 -24 -39 -24
-34 -1 6 -8 -3 -15 -20 -8 -16 -14 -23 -15 -15 0 13 -1 13 -10 0 -7 -11 -11
-8 -20 15 -10 26 -9 32 9 44 25 16 28 33 5 24 -13 -5 -15 -2 -9 18 4 13 14 35
22 47 8 13 12 26 10 29 -3 3 -14 -12 -25 -33 l-20 -38 -7 44 c-4 24 -11 51
-16 60 -4 8 -13 30 -18 49 -10 31 -9 37 14 61 35 36 32 50 -4 16 -24 -23 -29
-25 -35 -11 -13 36 -4 79 35 165 22 50 38 96 35 103 -3 8 -5 7 -5 -3 -1 -8
-19 -52 -41 -98 -22 -45 -42 -93 -46 -107 -8 -33 -21 -40 -28 -17 -4 10 -24
43 -46 72 -31 41 -37 57 -30 71 19 34 12 106 -13 134 -44 52 -152 42 -182 -16
-26 -50 -19 -97 20 -136 35 -35 37 -36 94 -30 54 6 60 4 83 -21 70 -74 95
-151 83 -248 -8 -64 -25 -72 -25 -11 0 23 -5 49 -10 57 -7 11 -10 6 -10 -19
l0 -35 -28 45 c-30 47 -91 99 -116 99 -9 0 -23 14 -31 30 -9 17 -41 61 -72 97
-33 39 -52 68 -45 71 39 13 -20 56 -133 97 -13 5 -15 9 -7 12 19 7 15 60 -5
68 -10 4 -65 10 -123 12 -159 8 -224 -18 -141 -55 l41 -19 -45 -10 c-37 -8
-45 -8 -45 4 0 7 -4 21 -9 31 -6 9 -19 49 -31 88 -23 78 -61 127 -82 106 -25
-25 -58 -14 -74 24 -8 20 -14 46 -12 58 2 17 9 20 36 18 37 -4 67 14 53 32 -5
6 -12 30 -16 53 -8 49 -51 119 -101 163 -34 29 -37 30 -137 30 -74 0 -109 -4
-123 -14 -16 -12 -17 -17 -6 -28 9 -9 45 -13 120 -13 134 0 152 -17 28 -27
-49 -3 -99 -9 -111 -12 -45 -11 -41 -66 4 -66 15 0 69 7 120 16 105 18 115 14
127 -42 5 -27 2 -34 -25 -53 -36 -26 -38 -38 -11 -109 23 -60 26 -101 8 -107
-7 -2 -92 -6 -188 -9 -96 -3 -210 -12 -253 -21 -101 -19 -107 -19 -107 5 0 11
5 20 11 20 5 0 7 5 4 10 -4 6 8 35 25 64 17 30 38 79 46 108 11 37 29 65 58
93 23 22 59 66 80 97 60 90 113 145 174 181 51 30 58 38 70 83 22 78 92 142
229 209 61 30 118 55 125 55 8 0 23 7 34 15 11 8 41 14 72 15 37 0 54 4 58 15
4 8 14 15 23 15 9 0 25 7 35 15 12 9 42 15 78 15 32 0 58 4 58 10 0 16 -42 33
-81 33 -56 0 -57 21 -1 75 30 29 56 66 67 97 24 64 61 114 91 121 13 3 42 -1
65 -10 45 -18 69 -10 69 24 0 19 -19 30 -51 30 -11 0 -17 5 -14 10 3 6 30 10
58 10 29 1 63 7 77 15 14 8 48 14 75 15 82 0 118 16 171 73 48 50 70 66 158
114 35 20 55 23 141 22 109 -2 173 -21 197 -58 15 -25 28 -27 28 -6 0 8 5 15
10 15 13 0 13 23 -1 54 -7 15 -26 30 -45 36 -18 6 -38 17 -44 25 -9 11 -17 12
-32 4 -12 -6 -47 -8 -86 -5 -104 9 -106 9 -129 1 -18 -6 -23 -4 -23 11 0 14
14 23 50 35 39 12 50 13 50 3 0 -24 32 -33 49 -14 20 23 96 33 111 15 6 -7 19
-11 30 -8 11 3 38 -7 65 -26 25 -17 48 -31 50 -31 2 0 5 10 7 21 2 12 18 30
36 39 44 24 24 35 -27 14 -50 -20 -67 -16 -48 10 10 14 29 20 68 23 29 1 69 8
89 15 52 17 77 18 91 2 18 -22 32 -17 25 11 -5 20 -2 27 19 37 38 17 54 -3 25
-32 -21 -21 -21 -22 -3 -36 17 -14 17 -14 0 -28 -15 -12 -16 -17 -6 -34 16
-25 5 -52 -21 -52 -30 0 -24 -17 7 -23 16 -3 39 -9 53 -13 22 -7 23 -6 12 9
-10 12 -11 21 -2 37 10 18 9 22 -9 27 -26 7 -28 33 -2 33 11 0 22 6 24 13 3 6
6 -9 6 -35 1 -34 8 -54 26 -76 14 -17 25 -37 25 -45 0 -8 7 -17 15 -21 17 -6
21 9 5 19 -12 8 -13 25 -1 25 13 0 70 55 73 71 2 8 8 17 13 22 6 4 1 9 -11 13
-12 3 -27 17 -33 30 -6 15 -19 24 -33 24 -15 0 -19 3 -12 10 8 8 19 8 38 0 37
-14 49 -4 43 36 -6 36 -1 39 41 28 12 -4 22 -14 22 -25 0 -10 4 -21 10 -24 5
-3 10 1 10 9 0 22 17 20 68 -10 39 -23 57 -26 142 -28 110 -3 150 -19 150 -60
0 -19 -4 -23 -20 -19 -11 3 -20 1 -20 -5 0 -22 23 -24 50 -3 28 20 30 20 42 3
21 -29 80 -69 123 -82 22 -7 49 -21 61 -31 11 -11 36 -24 54 -29 29 -8 39 -6
70 15 45 31 128 34 181 7 23 -11 50 -17 72 -14 29 3 41 -1 61 -23 14 -15 40
-35 58 -45 32 -17 33 -17 68 10 19 14 52 32 73 39 43 14 295 22 303 10 3 -5
15 -9 28 -9 13 0 36 -11 52 -25 16 -14 48 -40 72 -58 24 -18 66 -51 95 -74 29
-23 54 -38 55 -32 2 5 -9 20 -24 32 -16 12 -37 30 -46 40 -10 9 -22 17 -27 17
-5 0 -18 11 -29 25 -11 14 -24 25 -29 25 -13 0 -73 57 -73 70 0 7 -8 9 -19 5
-10 -3 -37 1 -59 8 -27 10 -78 13 -159 12 -108 -2 -126 -5 -193 -34 l-75 -31
-20 23 c-11 13 -46 31 -77 40 -42 13 -56 22 -51 32 3 8 0 15 -5 15 -6 0 -13
-9 -17 -19 -5 -18 -9 -19 -43 -7 -23 8 -74 12 -137 10 -86 -3 -106 -1 -145 18
-25 12 -52 24 -60 28 -8 4 -16 17 -18 29 -3 20 14 27 56 22 21 -3 13 16 -10
23 -22 7 -22 8 -4 15 14 5 16 10 8 15 -17 10 -15 42 4 61 15 14 15 19 0 48
l-15 32 29 3 c17 2 30 7 30 13 0 5 11 9 25 9 17 0 43 -17 78 -51 47 -47 57
-52 112 -58 66 -8 130 -41 138 -71 5 -19 37 -29 37 -12 0 4 -17 26 -39 50 -26
29 -47 42 -65 42 -18 0 -24 4 -20 15 7 17 -7 20 -23 4 -8 -8 -13 -8 -17 0 -4
6 -16 11 -26 11 -11 0 -24 9 -30 20 -8 15 -8 20 1 20 7 0 3 10 -9 23 -12 13
-22 26 -22 29 0 2 19 11 43 18 23 8 50 20 60 29 14 12 24 13 48 4 23 -9 29 -9
29 2 0 12 63 25 140 30 14 1 33 5 42 9 10 5 28 8 40 7 40 -1 62 -1 96 0 18 1
40 -5 49 -13 15 -11 16 -11 10 5 -4 10 -7 22 -7 25 0 8 -151 6 -198 -3 -20 -4
-39 -1 -48 6 -11 9 -14 8 -14 -5 0 -10 -9 -16 -27 -17 -39 -2 -64 -6 -96 -14
-19 -5 -27 -3 -27 5 0 10 -5 9 -17 -2 -34 -29 -117 -60 -160 -60 -23 1 -45 -3
-48 -9 -4 -5 -11 -6 -17 -3 -6 4 -33 6 -61 5 -37 0 -57 -6 -74 -23 -15 -14
-27 -19 -31 -12 -4 6 -15 13 -25 17 -12 4 -17 14 -13 24 17 64 18 69 3 51 -12
-15 -16 -16 -42 -2 -16 8 -35 12 -42 10 -7 -3 -13 -1 -13 4 0 6 -9 5 -21 -2
-17 -10 -23 -10 -26 0 -8 21 -33 13 -44 -15 -7 -20 -6 -29 3 -35 10 -8 10 -9
-1 -6 -29 8 -36 35 -16 58 16 18 17 24 7 41 -7 11 -9 25 -5 32 4 7 6 20 5 30
-4 23 9 22 42 -4 18 -14 34 -19 51 -15 22 6 25 3 25 -23 0 -16 7 -34 15 -41
14 -11 19 -7 16 13 -2 14 17 7 23 -8 4 -11 13 -14 29 -9 20 4 28 -1 47 -31
l22 -36 27 23 c14 13 28 24 30 26 3 1 -4 9 -15 17 -18 15 -18 15 9 9 21 -5 27
-2 27 10 0 9 8 16 19 16 10 0 22 7 25 16 8 21 8 26 -3 20 -5 -3 -9 5 -9 19 1
14 4 22 9 20 16 -10 20 16 7 46 -14 33 -50 48 -72 30 -26 -22 -38 47 -14 77 6
6 7 12 3 12 -4 0 -2 7 5 15 9 11 25 14 52 12 21 -2 38 0 38 5 0 4 -6 8 -12 8
-7 0 3 14 22 30 41 35 47 36 53 13 4 -17 5 -17 6 0 0 9 9 17 19 17 10 0 23 5
30 12 9 9 12 8 12 -5 0 -21 0 -21 50 -1 22 9 40 21 40 28 -1 18 -32 50 -62 63
-27 12 -38 33 -18 33 16 0 12 30 -5 36 -8 4 -15 12 -15 20 0 8 -4 14 -10 14
-5 0 -10 6 -10 13 0 8 15 13 40 14 22 1 40 -2 40 -8 0 -5 5 -9 10 -9 6 0 10 5
10 10 0 6 12 22 27 35 22 18 38 23 75 21 27 -1 51 -6 55 -9 3 -4 12 -2 20 4
21 18 163 -22 163 -47 0 -7 12 -13 28 -13 15 0 36 -2 47 -3 12 -2 21 4 23 17
4 17 2 18 -12 6 -13 -11 -17 -10 -24 10 -25 65 -24 69 3 79 14 5 28 18 32 27
3 10 13 26 21 36 8 9 12 20 8 25 -5 4 -15 -3 -23 -15 -17 -25 -36 -31 -27 -9
8 20 -12 29 -35 17 -14 -8 -22 -7 -30 3 -6 7 -8 15 -5 19 3 3 1 14 -6 24 -10
16 -11 16 -7 -4 4 -17 1 -23 -13 -23 -11 0 -20 10 -23 30 -6 27 -27 43 -27 20
0 -5 -7 -10 -15 -10 -8 0 -15 -4 -15 -10 0 -5 5 -10 11 -10 5 0 7 -5 4 -10 -4
-6 -11 -8 -16 -5 -5 4 -12 -1 -15 -9 -3 -9 -10 -13 -15 -10 -5 3 -7 9 -5 13 3
4 -11 23 -31 41 -32 31 -42 34 -98 36 -34 1 -72 5 -84 9 -17 5 -21 2 -21 -15
0 -17 -4 -20 -21 -15 -14 5 -25 2 -30 -6 -7 -11 -10 -9 -15 7 -7 27 -52 50
-68 34 -5 -5 -30 -10 -54 -10 -33 0 -43 -3 -39 -14 4 -10 -7 -15 -41 -19 -26
-3 -52 -1 -58 4 -6 5 -14 5 -18 1 -4 -4 -6 0 -4 8 2 9 -6 16 -19 18 -15 2 -20
8 -16 18 4 12 15 14 44 9 37 -6 39 -5 39 19 0 29 -3 30 -31 16 -21 -12 -26 -1
-8 17 17 17 0 35 -27 29 -16 -4 -24 -2 -24 6 0 9 -3 9 -12 0 -16 -16 -29 -15
-27 1 4 33 -2 45 -20 40 -13 -3 -29 4 -46 21 -19 19 -32 25 -51 20 -14 -4 -24
-2 -24 5 0 6 5 11 11 11 6 0 0 14 -12 32 -14 19 -22 45 -22 65 1 18 -3 33 -7
33 -4 0 -11 11 -14 25 -11 42 -28 29 -24 -17 3 -39 1 -43 -22 -46 -14 -2 -31
-9 -39 -15 -11 -10 -13 -8 -7 10 4 12 3 24 -2 27 -13 8 -52 -31 -52 -52 -1
-27 -25 -53 -44 -46 -11 4 -16 0 -17 -15 -2 -37 -4 -41 -14 -38 -5 1 -12 -11
-15 -27 -3 -16 -11 -31 -19 -34 -9 -3 -11 2 -6 17 4 12 2 21 -4 21 -6 0 -11
-5 -11 -11 0 -7 -10 -9 -26 -5 -17 5 -23 3 -19 -4 13 -21 -8 -9 -27 16 -16 20
-26 24 -47 19 -34 -9 -35 -10 -22 -33 8 -16 6 -25 -10 -46 -25 -32 -39 -33
-32 -3 4 18 3 19 -6 7 -10 -13 -11 -13 -11 0 -1 12 -4 11 -15 -4 -8 -10 -21
-16 -29 -13 -9 4 -21 -2 -29 -13 -15 -22 -27 -17 -27 11 0 10 -5 21 -12 25 -8
5 -9 2 -5 -9 8 -20 -11 -33 -26 -18 -6 6 -20 11 -32 11 -11 0 -26 10 -33 21
-12 19 -20 21 -59 15 -41 -5 -44 -4 -32 10 10 13 10 17 -2 24 -7 5 -23 7 -35
4 -15 -4 -23 0 -28 13 -3 10 -9 24 -12 31 -3 7 1 12 10 12 9 0 16 5 16 11 0 6
-7 9 -15 5 -17 -6 -65 9 -65 22 0 4 15 6 34 4 28 -3 34 -1 33 15 -2 18 4 20
36 8 12 -5 17 -2 17 9 0 9 -7 16 -15 16 -8 0 -12 6 -9 14 3 7 -6 20 -20 30
-22 14 -29 14 -48 4 -13 -7 -27 -19 -31 -25 -11 -18 -37 -16 -37 2 0 18 -31
20 -50 3 -12 -11 -12 -10 -1 5 16 20 9 33 -11 21 -7 -5 -20 -7 -30 -6 -9 2
-19 -2 -23 -8 -5 -8 -11 -3 -19 12 -13 27 -41 35 -61 18 -18 -15 -112 -22
-120 -10 -3 5 -12 7 -20 3 -9 -3 -15 1 -15 8 -1 8 -11 1 -24 -15 -18 -21 -29
-26 -45 -21 -29 9 -66 -19 -67 -53 -1 -15 -2 -33 -3 -40 -1 -9 -8 -11 -21 -7
-14 5 -20 2 -20 -9 0 -18 -15 -21 -25 -6 -8 12 -55 13 -55 1 0 -16 -44 -21
-52 -7 -5 9 -17 12 -30 8 -17 -4 -20 -2 -15 12 6 16 2 18 -32 14 -32 -3 -41 0
-44 14 -3 10 -12 18 -21 18 -9 0 -16 6 -16 13 0 9 -3 8 -9 -2 -7 -11 -12 -11
-31 2 -14 10 -18 17 -10 22 15 10 -8 37 -29 33 -9 -1 -22 1 -29 6 -8 5 -21 1
-33 -10 -17 -15 -21 -16 -32 -3 -14 18 -75 43 -132 55 -28 7 -41 15 -43 29 -7
44 -12 51 -25 35 -14 -16 -41 -35 -72 -49 -11 -5 -30 -19 -42 -30 -25 -23 -43
-27 -43 -9 0 6 -9 2 -20 -10 -11 -12 -26 -19 -33 -16 -7 2 -26 -7 -41 -21 -29
-27 -57 -36 -37 -11 13 15 -4 26 -39 26 -10 0 -20 10 -24 23 l-6 22 -21 -24
c-15 -18 -23 -21 -31 -13 -20 20 -31 13 -24 -14 6 -23 5 -24 -14 -14 -11 6
-25 8 -30 5 -5 -3 -18 0 -29 7 -15 9 -17 15 -9 25 14 17 1 30 -14 15 -9 -9
-16 -8 -29 4 -11 10 -23 13 -31 8 -7 -5 -22 -10 -33 -11 -11 -2 -21 -7 -23
-12 -2 -5 -11 -7 -21 -4 -10 3 -22 0 -25 -6 -4 -6 -20 -11 -37 -11 -19 0 -29
-5 -29 -15 0 -8 -4 -15 -10 -15 -5 0 -10 4 -10 9 0 14 -37 24 -52 14 -7 -4
-19 -8 -27 -8 -16 0 -62 -74 -56 -91 5 -16 -36 -33 -66 -27 -18 3 -35 -3 -56
-21 -35 -30 -45 -33 -37 -11 9 23 -14 18 -26 -6 -9 -16 -18 -19 -37 -14 -20 5
-24 3 -20 -8 3 -8 1 -19 -5 -25 -8 -8 -8 -15 1 -25 6 -8 9 -22 5 -30 -3 -10 2
-21 15 -29 12 -7 21 -19 21 -27 0 -22 56 -81 68 -69 12 12 83 -21 90 -41 3 -8
0 -11 -6 -7 -6 3 -13 2 -17 -4 -3 -5 -19 -7 -36 -3 -21 4 -35 0 -49 -12 -13
-12 -28 -15 -45 -11 -14 3 -36 9 -50 12 -18 5 -30 1 -39 -11 -11 -16 -14 -15
-30 10 -10 15 -23 24 -31 21 -8 -3 -16 0 -19 7 -3 9 -7 8 -14 -2 -7 -10 -14
-10 -30 -2 -15 8 -23 7 -33 -5 -9 -11 -22 -14 -47 -9 -22 4 -41 1 -57 -9 -21
-14 -24 -14 -29 0 -3 9 -13 14 -20 11 -8 -3 -17 -1 -19 6 -3 9 -8 9 -18 0 -7
-7 -20 -13 -29 -13 -11 0 -22 -15 -30 -41 -12 -35 -12 -42 1 -50 10 -7 6 -8
-13 -3 -21 5 -28 2 -28 -9 0 -8 5 -17 10 -19 6 -2 2 -13 -10 -25 -11 -12 -20
-36 -20 -52 0 -25 5 -32 26 -37 22 -6 25 -11 20 -35 -4 -23 1 -33 35 -64 38
-34 45 -61 14 -48 -11 4 -13 1 -9 -11 4 -12 0 -16 -15 -16 -12 0 -30 -9 -41
-20 -16 -16 -18 -24 -9 -38 16 -25 94 -55 124 -48 18 5 25 2 25 -8 0 -8 4 -17
10 -21 14 -8 51 18 45 32 -2 7 0 13 6 13 14 0 39 -64 39 -101 0 -18 8 -41 18
-52 16 -19 16 -19 -5 -13 -25 8 -30 -3 -11 -22 9 -9 8 -12 -4 -12 -9 0 -20 5
-24 11 -4 7 -21 9 -45 5 -26 -4 -39 -2 -39 5 0 8 -5 7 -15 -1 -9 -7 -14 -19
-11 -27 4 -10 -1 -12 -22 -7 -22 5 -25 4 -14 -7 6 -7 12 -20 12 -29 0 -13 -1
-13 -10 0 -7 12 -12 12 -22 2 -6 -6 -20 -12 -29 -12 -26 0 -33 -19 -15 -39 15
-16 14 -19 -9 -31 -28 -15 -33 -30 -10 -30 8 0 15 -4 15 -10 0 -5 -7 -10 -15
-10 -11 0 -15 -11 -15 -40 0 -26 5 -40 13 -40 7 0 23 -7 36 -16 16 -12 20 -19
12 -27 -17 -17 -13 -34 10 -40 15 -4 20 -11 16 -21 -4 -10 -1 -16 9 -16 12 0
15 6 10 24 -8 32 2 56 23 56 13 0 13 -2 2 -9 -19 -12 -6 -41 19 -41 11 0 20 4
20 9 0 5 8 7 19 4 24 -6 16 -43 -10 -43 -11 0 -19 -4 -19 -10 0 -5 7 -10 16
-10 21 0 13 -22 -13 -35 -38 -19 -54 -38 -48 -55 4 -11 -1 -20 -12 -24 -15 -6
-15 -8 -3 -16 13 -8 12 -10 -2 -10 -24 0 -23 -12 2 -28 11 -7 20 -21 20 -32 0
-18 7 -20 54 -20 30 0 57 -4 60 -9 6 -9 62 -17 188 -28 58 -4 68 -8 74 -27 3
-11 16 -32 29 -46 12 -14 26 -43 30 -64 3 -22 15 -49 25 -60 10 -12 34 -39 52
-60 18 -22 52 -48 76 -58 23 -10 42 -26 42 -34 0 -20 37 -130 60 -179 52 -109
80 -179 80 -199 0 -25 -24 -63 -57 -90 -16 -12 -22 -24 -18 -37 7 -21 -15 -49
-38 -49 -8 0 -17 -10 -21 -22 -5 -19 -8 -21 -16 -8 -9 13 -11 13 -20 0 -5 -8
-10 -23 -10 -32 0 -9 -8 -23 -18 -30 -24 -18 -82 -93 -82 -107 0 -6 -7 -11
-15 -11 -8 0 -12 -6 -9 -14 3 -8 -3 -16 -16 -19 -12 -3 -20 -12 -18 -20 2 -9
-5 -24 -14 -34 -9 -10 -27 -29 -38 -41 -21 -23 -27 -24 -130 -20 -60 1 -111 6
-115 10 -4 3 0 17 8 30 19 28 17 53 -6 96 -17 32 -20 33 -60 27 -51 -9 -80
-23 -72 -36 4 -5 -1 -12 -10 -15 -9 -4 -21 -17 -25 -30 -6 -16 -15 -22 -25
-18 -11 5 -15 -1 -15 -19 0 -14 -3 -33 -6 -42 -5 -11 0 -18 15 -22 29 -7 18
-19 -24 -27 l-35 -7 0 -81 c0 -69 2 -79 15 -68 19 15 68 5 91 -21 9 -10 13
-19 8 -19 -5 -1 6 -7 24 -15 21 -9 32 -21 32 -35 0 -19 -6 -20 -85 -20 l-85 0
0 -90 c0 -73 3 -90 15 -90 11 0 15 -12 16 -42 l2 -43 6 40 c4 28 12 41 25 43
32 6 36 -11 17 -83 -10 -39 -22 -83 -26 -100 -7 -30 -7 -30 -16 -6 -5 13 -7
32 -4 42 4 12 -2 30 -16 47 l-22 27 7 -30 c15 -69 18 -113 7 -119 -8 -5 -11
-231 -11 -812 l0 -804 6400 0 6400 0 0 1663 0 1662 -30 17 c-17 9 -30 25 -30
35 0 10 -7 28 -15 41 -19 27 -46 112 -39 124 3 4 13 8 23 8 30 0 49 32 66 110
23 106 29 156 18 163 -5 3 -27 1 -47 -5 -35 -11 -39 -10 -56 12 -15 20 -21 22
-34 11 -8 -7 -20 -28 -27 -48 l-11 -35 -92 1 c-129 2 -144 -1 -138 -21 5 -22
5 -22 -46 2 -30 15 -43 28 -47 48 -4 15 -10 46 -16 69 -17 79 -12 111 26 156
19 22 35 47 35 54 0 22 -35 15 -60 -12 -13 -14 -27 -25 -31 -25 -13 0 -26 31
-34 78 -6 39 -5 42 17 43 18 1 19 2 4 6 -16 4 -18 11 -12 49 4 31 2 44 -7 44
-9 0 -9 2 1 9 8 5 11 17 7 33 -5 19 -1 28 19 42 25 16 25 18 10 41 -10 16 -12
25 -5 25 6 0 16 -12 21 -26 6 -14 15 -22 20 -19 6 4 7 13 2 22 -12 20 -3 63
13 63 7 0 18 -7 25 -15 7 -8 30 -20 52 -27 25 -7 37 -16 34 -25 -3 -7 -1 -13
4 -13 5 0 15 -13 24 -30 10 -21 11 -30 3 -30 -6 0 -1 -8 13 -17 17 -12 25 -13
28 -5 2 7 12 12 23 12 10 0 19 5 19 11 0 7 12 9 34 5 41 -8 58 9 19 19 -31 7
-76 52 -68 66 3 5 -1 6 -9 3 -29 -11 -19 41 10 55 17 7 24 17 20 26 -4 12 0
14 20 9 23 -6 25 -4 19 15 -4 13 -2 21 6 21 8 0 10 11 6 34 -7 43 -1 50 24 25
11 -11 20 -34 20 -56 1 -26 3 -30 6 -14 3 13 16 34 29 46 13 12 24 27 24 34 0
6 5 11 11 11 7 0 9 -10 4 -27 -5 -23 -4 -26 6 -15 16 15 55 16 64 2 20 -32 24
38 25 401 0 397 0 400 -20 394 -26 -8 -26 11 0 27 20 13 20 24 20 770 0 643
-2 759 -14 771 -12 12 -13 18 -1 41 11 21 11 26 1 26 -8 0 -19 7 -26 15 -7 8
-16 12 -21 9 -5 -3 -9 1 -9 9 0 12 -20 27 -36 27 -2 0 -4 -11 -4 -25 0 -14 5
-25 10 -25 6 0 10 -5 10 -12 0 -6 -7 -4 -18 5 -23 21 -36 21 -52 2 -9 -11 -16
-13 -24 -5 -13 13 -29 13 -21 0 3 -5 1 -10 -6 -10 -6 0 -22 -12 -35 -27 -19
-22 -25 -25 -38 -14 -17 14 -25 10 -68 -31 -22 -22 -37 -23 -44 -3 -4 10 -13
13 -25 10 -11 -4 -21 1 -28 14 -11 19 -51 19 -51 0 0 -5 -4 -9 -9 -9 -12 0
-21 38 -9 42 15 5 -29 98 -47 98 -8 0 -15 7 -15 15 0 8 -4 15 -10 15 -5 0 -10
-4 -10 -10 0 -23 -20 -7 -31 25 -7 19 -15 31 -18 27 -7 -8 -73 -44 -75 -40 -1
2 -8 15 -15 30 -10 19 -23 27 -50 31 -46 5 -61 -1 -61 -25 0 -17 -2 -18 -15
-4 -8 8 -15 19 -15 24 0 10 -41 24 -48 17 -3 -3 4 -8 14 -12 40 -15 52 -63 16
-63 -13 0 -12 -3 3 -20 18 -20 36 -27 34 -12 -1 4 -1 14 0 22 1 12 3 12 17 -1
14 -15 14 -19 -3 -47 -18 -29 -20 -30 -36 -15 -16 16 -17 16 -17 0 0 -15 -2
-15 -35 1 -32 16 -46 32 -27 32 4 0 8 9 9 19 1 13 -3 18 -12 15 -13 -5 -39 29
-29 38 2 3 0 17 -7 30 -8 18 -17 24 -30 21 -15 -4 -18 -1 -13 11 5 14 -4 16
-68 16 -44 0 -79 -5 -86 -12 -14 -14 -52 -18 -52 -6 0 5 -5 6 -10 3 -6 -4 -18
-1 -26 6 -12 10 -17 8 -29 -7 -13 -17 -14 -18 -15 -1 0 14 -10 17 -63 17 -36
0 -68 -5 -75 -12 -9 -9 -12 -9 -12 0 0 16 -27 15 -33 0 -4 -10 -7 -10 -18 0
-19 18 -89 16 -89 -3 0 -18 -17 -20 -22 -4 -3 8 -46 13 -126 15 l-123 3 -10
-26 c-6 -18 -6 -30 2 -39 9 -11 7 -14 -10 -14 -21 0 -29 24 -11 35 6 3 10 15
10 26 0 14 -7 19 -26 19 -25 0 -26 -2 -21 -36z m557 -19 c0 -27 -9 -32 -27
-14 -9 9 -8 15 0 25 18 20 27 17 27 -11z m235 16 c3 -5 1 -12 -4 -15 -5 -3
-11 1 -15 9 -6 16 9 21 19 6z m-687 -60 c3 -8 -1 -12 -9 -9 -7 2 -15 10 -17
17 -3 8 1 12 9 9 7 -2 15 -10 17 -17z m836 -15 c8 3 16 -4 19 -15 3 -12 1 -21
-3 -21 -23 0 -40 14 -39 34 0 11 3 16 5 9 3 -7 11 -10 18 -7z m-1144 -60 c0
-3 -4 -8 -10 -11 -5 -3 -10 -1 -10 4 0 6 5 11 10 11 6 0 10 -2 10 -4z m-547
-36 c-7 -28 -22 -35 -30 -15 -3 10 0 21 8 26 22 14 28 11 22 -11z m797 -9 c0
-5 -9 -12 -19 -16 -11 -3 -22 -14 -24 -23 -3 -10 -5 -6 -6 10 -1 24 7 32 42
37 4 0 7 -3 7 -8z m-770 -57 c0 -7 -9 -18 -20 -24 -16 -8 -20 -8 -20 4 0 8 -8
16 -17 19 -15 3 -13 6 7 14 29 12 50 7 50 -13z m1570 -39 c-7 -9 -15 -13 -18
-10 -3 2 1 11 8 20 7 9 15 13 18 10 3 -2 -1 -11 -8 -20z m-735 5 c3 -5 1 -10
-4 -10 -6 0 -11 5 -11 10 0 6 2 10 4 10 3 0 8 -4 11 -10z m-155 -10 c0 -5 -2
-10 -4 -10 -3 0 -8 5 -11 10 -3 6 -1 10 4 10 6 0 11 -4 11 -10z m355 0 c3 -5
1 -10 -4 -10 -6 0 -11 5 -11 10 0 6 2 10 4 10 3 0 8 -4 11 -10z m-1019 -27
c-2 -10 -9 -18 -17 -18 -7 0 -15 8 -17 18 -2 11 3 17 16 17 14 0 19 -6 18 -17z
m2609 7 c3 -5 1 -10 -4 -10 -6 0 -11 5 -11 10 0 6 2 10 4 10 3 0 8 -4 11 -10z
m-1050 -6 c13 -5 14 -8 3 -15 -19 -13 -28 -11 -28 6 0 17 2 18 25 9z m-635
-34 c0 -5 -5 -10 -11 -10 -5 0 -7 5 -4 10 3 6 8 10 11 10 2 0 4 -4 4 -10z
m560 -10 c0 -5 -5 -10 -11 -10 -5 0 -7 5 -4 10 3 6 8 10 11 10 2 0 4 -4 4 -10z
m-345 -10 c-3 -5 -11 -10 -16 -10 -6 0 -7 5 -4 10 3 6 11 10 16 10 6 0 7 -4 4
-10z m354 -16 c3 -3 0 -9 -7 -16 -8 -8 -15 -8 -27 2 -22 19 -18 32 8 24 12 -3
24 -8 26 -10z m121 6 c0 -5 -4 -10 -10 -10 -5 0 -10 5 -10 10 0 6 5 10 10 10
6 0 10 -4 10 -10z m-1280 -50 c-18 -11 -22 -7 -14 14 5 13 10 14 18 6 8 -8 7
-13 -4 -20z m1289 -7 c-1 -21 -3 -47 -6 -57 -5 -18 -6 -18 -15 -2 -6 11 -6 22
2 32 9 10 9 14 1 14 -6 0 -14 -7 -17 -15 -4 -8 -13 -15 -21 -15 -24 0 -10 34
20 48 15 7 27 17 27 23 0 5 2 9 5 9 2 0 4 -17 4 -37z m-674 -3 c3 -5 1 -10 -4
-10 -6 0 -11 5 -11 10 0 6 2 10 4 10 3 0 8 -4 11 -10z m145 -10 c0 -5 -4 -10
-10 -10 -5 0 -10 5 -10 10 0 6 5 10 10 10 6 0 10 -4 10 -10z m-91 -34 c10 -11
7 -14 -14 -12 -25 1 -31 7 -18 19 10 11 19 8 32 -7z m-599 -6 c0 -5 -2 -10 -4
-10 -3 0 -8 5 -11 10 -3 6 -1 10 4 10 6 0 11 -4 11 -10z m-325 -10 c3 -5 1
-10 -4 -10 -6 0 -11 5 -11 10 0 6 2 10 4 10 3 0 8 -4 11 -10z m1475 1 c0 -10
-24 -21 -46 -21 -20 0 -17 18 4 23 29 8 42 7 42 -2z m140 -21 c0 -5 -7 -7 -15
-4 -8 4 -15 8 -15 10 0 2 7 4 15 4 8 0 15 -4 15 -10z m-1466 -16 c9 -24 7 -54
-3 -54 -8 0 -41 54 -41 67 0 11 39 0 44 -13z m96 -7 c0 -8 -12 -19 -26 -26
-19 -8 -24 -16 -19 -29 4 -13 1 -12 -16 5 -13 12 -20 26 -15 30 4 4 11 2 15
-5 6 -10 12 -6 25 12 18 28 36 34 36 13z m120 -7 c0 -5 -4 -10 -9 -10 -6 0
-13 5 -16 10 -3 6 1 10 9 10 9 0 16 -4 16 -10z m-745 -68 c-11 -11 -25 15 -19
33 7 17 8 16 16 -5 5 -13 6 -25 3 -28z m-291 3 c9 -14 22 -23 28 -19 6 4 9 1
6 -6 -2 -8 -9 -15 -15 -17 -14 -5 -53 36 -53 54 0 21 16 15 34 -12z m-49 -21
c11 4 15 -2 15 -26 0 -18 -3 -28 -8 -22 -4 5 -18 22 -32 39 -14 16 -17 23 -8
16 10 -7 25 -11 33 -7z m45 -84 c0 -5 -2 -10 -4 -10 -3 0 -8 5 -11 10 -3 6 -1
10 4 10 6 0 11 -4 11 -10z m-290 -76 c0 -8 -5 -12 -10 -9 -6 4 -8 11 -5 16 9
14 15 11 15 -7z m620 -44 c0 -5 -5 -10 -11 -10 -5 0 -7 5 -4 10 3 6 8 10 11
10 2 0 4 -4 4 -10z m-1795 -10 c3 -5 1 -10 -4 -10 -6 0 -11 5 -11 10 0 6 2 10
4 10 3 0 8 -4 11 -10z m50 1 c3 -5 1 -12 -5 -16 -5 -3 -10 1 -10 9 0 18 6 21
15 7z m475 -71 c0 -5 -4 -10 -10 -10 -5 0 -10 5 -10 10 0 6 5 10 10 10 6 0 10
-4 10 -10z m-590 -160 c0 -5 -4 -10 -9 -10 -6 0 -13 5 -16 10 -3 6 1 10 9 10
9 0 16 -4 16 -10z m3130 -204 c0 -6 -7 -20 -15 -30 -15 -19 -15 -19 -15 1 0
12 -3 28 -6 36 -4 12 0 14 15 10 12 -3 21 -10 21 -17z m-3203 -22 c-3 -3 -12
-4 -19 -1 -8 3 -5 6 6 6 11 1 17 -2 13 -5z m1471 -41 c-6 -7 -14 -13 -19 -13
-14 0 -11 38 4 43 17 6 28 -15 15 -30z m-1373 7 c18 -7 19 -8 3 -15 -22 -9
-51 1 -43 15 7 12 13 12 40 0z m553 -40 c12 0 22 -5 22 -12 0 -7 6 -6 18 4 9
9 22 13 29 11 6 -2 14 1 18 6 3 6 14 11 24 11 14 0 17 -6 13 -25 -4 -24 -8
-25 -47 -20 -47 5 -56 -1 -72 -50 -6 -16 -16 -29 -22 -27 -6 1 -11 -3 -11 -8
0 -7 13 -8 36 -4 25 4 35 3 31 -4 -4 -5 0 -12 8 -15 10 -5 16 4 21 29 4 24 10
32 16 26 6 -6 16 -8 22 -6 14 5 19 -33 5 -41 -5 -4 -9 -17 -9 -31 0 -29 -33
-33 -62 -7 -17 15 -18 15 -18 0 0 -29 -58 -21 -97 13 -18 17 -43 30 -54 30
-11 0 -22 7 -26 16 -8 22 29 94 49 94 11 0 15 6 11 19 -5 18 -3 19 34 6 21 -8
48 -14 61 -15z m-488 -10 c0 -5 -5 -10 -11 -10 -5 0 -7 5 -4 10 3 6 8 10 11
10 2 0 4 -4 4 -10z m1090 -28 c0 -9 -25 -33 -47 -46 -9 -5 -13 1 -13 18 0 23
12 32 48 35 6 0 12 -3 12 -7z m-1093 -37 c13 -27 14 -43 7 -72 -5 -20 -15 -38
-21 -41 -16 -5 -30 27 -16 37 13 8 11 91 -2 90 -22 -3 -35 2 -35 11 0 6 11 10
25 10 19 0 29 -9 42 -35z m812 -19 c-12 -24 -29 -36 -29 -18 0 10 33 52 38 48
1 -2 -3 -15 -9 -30z m1233 22 c-21 -21 -13 -26 31 -18 23 5 44 6 47 4 6 -7
-23 -24 -31 -18 -4 2 -10 0 -14 -6 -3 -5 0 -10 7 -10 10 0 9 -3 -2 -9 -8 -6
-19 -7 -25 -3 -5 3 -16 7 -23 8 -8 2 -16 5 -18 7 -8 7 18 57 30 57 6 0 5 -5
-2 -12z m2388 -8 c0 -5 -5 -10 -11 -10 -5 0 -7 5 -4 10 3 6 8 10 11 10 2 0 4
-4 4 -10z m-3240 -30 c0 -5 -5 -10 -10 -10 -6 0 -10 -8 -8 -17 2 -12 -3 -18
-17 -18 -13 0 -21 8 -23 22 -3 21 0 22 51 32 4 0 7 -3 7 -9z m964 -43 c-3 -9
-1 -25 6 -36 11 -21 10 -21 -32 1 -42 23 -43 23 -15 26 26 3 28 6 22 35 -7 31
-6 31 9 10 9 -12 13 -28 10 -36z m-184 37 c0 -7 -40 -44 -47 -44 -2 0 4 11 14
25 17 23 33 32 33 19z m53 -41 c8 -16 11 -36 8 -47 -7 -17 -8 -17 -24 -2 -9
10 -21 15 -26 12 -17 -11 -20 25 -4 44 23 26 30 25 46 -7z m-899 -25 c6 -4 7
-8 1 -8 -23 0 -38 18 -30 36 8 18 8 18 13 -1 2 -11 9 -23 16 -27z m-244 8 c0
-2 -7 -7 -16 -10 -8 -3 -12 -2 -9 4 6 10 25 14 25 6z m-425 -23 c43 -20 45
-31 5 -25 -18 3 -30 0 -30 -7 0 -6 -5 -11 -11 -11 -6 0 -9 7 -5 15 3 9 0 15
-9 15 -9 0 -12 6 -9 15 8 19 15 19 59 -2z m-28 -73 c7 0 13 -4 13 -10 0 -17
-15 -11 -38 13 -12 13 -19 27 -15 31 4 4 12 -2 17 -13 5 -12 15 -21 23 -21z
m-611 -7 c10 -11 13 -10 17 8 3 12 11 19 19 16 7 -2 11 -11 9 -18 -2 -8 -4
-19 -4 -26 -1 -29 -87 10 -87 39 0 11 33 -2 46 -19z m544 13 c0 -3 -4 -8 -10
-11 -5 -3 -10 -1 -10 4 0 6 5 11 10 11 6 0 10 -2 10 -4z m-50 -20 c0 -3 -4 -8
-10 -11 -5 -3 -10 -1 -10 4 0 6 5 11 10 11 6 0 10 -2 10 -4z m-107 -36 c-4 -5
-27 -11 -50 -15 -37 -6 -43 -4 -43 10 0 12 6 16 19 12 10 -2 24 -1 31 3 15 9
54 0 43 -10z m-470 -41 c-6 -53 -26 -71 -60 -54 -21 11 -20 12 20 56 23 25 43
45 44 45 0 -1 -1 -22 -4 -47z m67 36 c0 -8 -4 -15 -9 -15 -5 0 -11 7 -15 15
-3 9 0 15 9 15 8 0 15 -7 15 -15z m1700 5 c0 -5 5 -10 10 -10 6 0 20 -9 32
-20 l22 -20 -33 -6 c-30 -6 -32 -10 -27 -35 6 -34 9 -33 -39 -14 -31 14 -35
18 -24 31 10 12 14 12 21 2 6 -10 12 -9 23 6 16 21 11 55 -9 68 -7 5 -4 8 7 8
9 0 17 -4 17 -10z m-1277 -48 c-2 -13 1 -21 7 -17 17 11 32 -5 19 -21 -18 -22
-36 -17 -43 12 -5 19 -10 24 -17 17 -8 -8 -7 -17 0 -32 10 -17 9 -21 -4 -21
-8 0 -15 5 -15 11 0 5 -5 7 -11 4 -6 -4 -8 -13 -5 -20 6 -17 -14 -35 -40 -35
-12 0 -24 -6 -27 -14 -3 -8 -33 -22 -66 -32 -37 -10 -61 -22 -61 -30 0 -16 16
-19 25 -4 10 16 65 12 65 -4 0 -24 -12 -46 -21 -40 -5 3 -7 10 -4 15 4 5 1 9
-5 9 -6 0 -9 -8 -6 -17 7 -21 -9 -51 -21 -40 -4 5 -8 16 -8 25 0 9 -7 17 -15
17 -9 0 -14 -8 -13 -20 3 -27 -29 -95 -45 -95 -15 0 -82 42 -82 53 0 4 7 7 15
7 28 0 13 32 -20 44 -20 7 -20 8 -1 21 16 12 17 17 6 30 -8 10 -9 15 -2 15 6
0 16 -9 22 -20 6 -11 16 -17 22 -14 7 4 -2 18 -23 36 -31 26 -33 29 -16 42 25
19 21 30 -5 12 -28 -20 -42 -20 -34 -1 8 21 -11 19 -24 -2 -9 -14 -10 -7 -6
35 3 30 1 52 -4 52 -6 0 -10 9 -10 20 0 11 5 20 10 20 6 0 10 -8 10 -17 0 -10
11 -31 23 -47 20 -25 32 -30 83 -34 32 -2 65 -9 72 -14 15 -13 40 6 53 40 8
22 14 24 48 18 34 -5 44 -1 82 29 52 42 96 45 92 7z m-343 -1 c-33 -19 -60
-22 -60 -9 0 8 14 14 38 15 24 1 32 -1 22 -6z m2006 -20 c0 -9 5 -15 12 -13 8
1 11 -2 7 -8 -9 -14 -48 -13 -63 2 -17 17 -15 26 6 30 32 7 39 5 38 -11z m58
-56 c6 -22 10 -24 46 -20 31 4 40 2 40 -10 0 -8 -9 -15 -20 -15 -10 0 -24 -9
-30 -20 -12 -22 -37 -17 -43 8 -3 10 -5 4 -6 -12 -1 -21 -4 -26 -13 -18 -7 5
-24 13 -38 17 -20 6 -22 5 -13 -5 6 -7 9 -19 6 -28 -5 -11 -1 -14 14 -10 15 4
23 0 26 -13 7 -27 24 -24 31 6 4 17 13 25 27 25 16 0 20 -5 16 -20 -3 -12 0
-20 8 -20 7 0 18 -7 26 -16 10 -13 10 -17 -1 -24 -9 -6 -17 -5 -21 2 -4 7 -9
7 -13 -1 -10 -16 3 -33 20 -27 10 4 14 -2 14 -19 0 -22 -4 -25 -40 -25 -26 0
-40 -4 -40 -13 0 -17 20 -37 38 -37 7 0 21 -7 30 -16 19 -20 30 -1 12 21 -6 8
-9 19 -5 25 9 15 33 12 42 -4 5 -9 27 -16 56 -18 26 -2 47 -7 47 -12 0 -4 7
-5 16 -2 8 3 12 2 9 -4 -3 -6 -11 -10 -16 -10 -6 0 -17 -7 -25 -15 -10 -10
-11 -15 -4 -15 7 0 10 -8 7 -20 -3 -11 -1 -22 3 -25 5 -3 7 -19 5 -36 -3 -24
0 -30 13 -27 9 2 17 10 17 18 1 27 16 42 29 31 7 -6 15 -8 18 -5 3 2 8 -2 11
-10 10 -26 -16 -46 -71 -51 -50 -5 -53 -4 -47 15 7 22 -10 28 -18 6 -10 -25 4
-56 25 -56 15 0 18 -5 13 -21 -6 -19 -4 -21 19 -15 14 3 26 2 26 -3 0 -15 -51
-23 -66 -11 -7 7 -16 20 -19 31 -4 11 -24 28 -46 39 -21 11 -39 25 -39 30 0 6
-8 10 -17 10 -15 0 -16 -2 -3 -10 12 -7 11 -13 -10 -35 -20 -22 -32 -26 -62
-23 -21 2 -38 2 -38 1 0 -1 16 -10 36 -19 34 -16 36 -16 65 5 l30 23 -3 -34
c-2 -24 -8 -34 -23 -36 -28 -4 -48 -48 -33 -72 8 -13 9 -26 2 -42 -5 -13 -9
-51 -8 -86 l1 -64 -26 7 c-14 4 -37 9 -51 11 -52 10 -55 13 -57 56 -2 71 -7
83 -33 88 -20 4 -25 12 -26 35 -1 38 -13 65 -28 65 -11 0 -25 26 -89 170 -54
122 -58 274 -7 275 8 0 20 4 26 7 6 4 16 -4 23 -18 9 -21 16 -25 36 -20 13 3
26 2 29 -3 7 -10 -35 -47 -62 -55 -30 -10 -43 -42 -30 -71 9 -20 8 -28 -5 -43
-10 -10 -17 -23 -17 -28 0 -5 12 4 26 19 23 25 25 32 14 52 -13 25 -2 42 52
78 36 23 38 22 38 -13 0 -16 4 -30 8 -30 4 0 6 15 4 34 -4 38 13 58 23 26 9
-27 25 -26 17 2 -5 19 -2 21 25 15 22 -4 30 -2 30 9 0 8 -6 14 -12 14 -20 0
-40 31 -37 54 5 25 42 67 53 60 5 -3 9 1 9 8 0 15 31 58 41 58 4 0 10 -11 13
-25z m-484 5 c12 -8 11 -10 -7 -10 -12 0 -25 5 -28 10 -8 13 15 13 35 0z m400
-25 c0 -5 -5 -3 -10 5 -5 8 -10 20 -10 25 0 6 5 3 10 -5 5 -8 10 -19 10 -25z
m-1561 -12 c1 13 10 17 45 17 26 0 48 -6 55 -14 10 -12 5 -17 -29 -27 -23 -7
-47 -20 -53 -28 -25 -33 -46 -44 -61 -32 -12 10 -14 9 -10 -6 8 -27 -49 -66
-85 -58 -15 3 -38 1 -52 -5 -23 -10 -22 -10 9 -7 38 4 43 -10 6 -19 -28 -7
-38 0 -49 34 -5 18 -2 22 14 22 12 0 21 4 21 9 0 5 9 13 20 16 11 3 20 11 20
16 0 6 -5 7 -11 4 -6 -4 -5 1 2 13 12 19 13 19 34 -4 23 -25 45 -32 45 -14 0
6 -7 13 -15 16 -14 6 -13 8 2 19 15 12 22 10 42 -8 13 -12 21 -17 17 -10 -3 6
2 16 11 22 10 6 12 11 6 11 -7 0 -13 9 -13 19 0 11 -4 23 -10 26 -5 3 -10 -1
-10 -9 0 -18 -2 -19 -25 -9 -14 5 -11 9 16 24 l34 17 12 -26 c8 -19 12 -22 12
-9z m151 7 c0 -5 -7 -10 -15 -10 -8 0 -15 5 -15 10 0 6 7 10 15 10 8 0 15 -4
15 -10z m-796 -66 c9 -24 2 -26 -12 -4 -7 11 -8 20 -3 20 5 0 12 -7 15 -16z
m2066 -8 c0 -15 51 -17 62 -1 5 6 11 6 17 0 8 -8 6 -17 -4 -32 -14 -20 -18
-20 -86 -14 -9 1 -19 43 -13 53 8 13 24 9 24 -6z m-2108 -17 c2 -6 16 -11 32
-11 25 0 26 -2 12 -16 -13 -14 -19 -14 -41 -2 -14 7 -25 19 -25 27 0 16 17 17
22 2z m-4752 -41 c0 -6 -6 -5 -15 2 -8 7 -15 14 -15 16 0 2 7 1 15 -2 8 -4 15
-11 15 -16z m-250 -25 c11 -4 8 -8 -10 -13 l-25 -8 33 -13 c33 -14 41 -39 22
-69 -8 -13 -13 -13 -41 3 -17 9 -39 17 -49 17 -10 0 -20 9 -23 20 -3 11 -12
22 -21 25 -9 3 -24 7 -33 10 -14 5 -12 9 13 25 28 18 90 20 134 3z m770 7 c0
-5 -2 -10 -4 -10 -3 0 -8 5 -11 10 -3 6 -1 10 4 10 6 0 11 -4 11 -10z m330 -5
c0 -8 -6 -15 -14 -15 -7 0 -19 7 -26 15 -11 13 -8 15 14 15 16 0 26 -5 26 -15z
m4037 -48 c10 -11 12 -17 6 -13 -7 4 -13 2 -13 -3 0 -15 -16 -14 -33 4 -8 8
-17 11 -21 8 -3 -4 -6 0 -6 9 0 8 3 17 6 20 9 10 42 -3 61 -25z m70 27 c-3 -3
-12 -4 -19 -1 -8 3 -5 6 6 6 11 1 17 -2 13 -5z m253 2 c0 -3 -4 -8 -10 -11 -5
-3 -10 -1 -10 4 0 6 5 11 10 11 6 0 10 -2 10 -4z m-5996 -17 c20 17 32 -8 39
-84 3 -33 3 -49 -1 -35 -5 14 -16 27 -27 29 -20 3 -39 20 -41 36 -1 6 -5 23
-8 39 -6 26 -5 28 8 17 12 -11 19 -11 30 -2z m6936 1 c0 -5 -5 -10 -11 -10 -5
0 -7 5 -4 10 3 6 8 10 11 10 2 0 4 -4 4 -10z m1390 6 c0 -3 -4 -8 -10 -11 -5
-3 -10 -1 -10 4 0 6 5 11 10 11 6 0 10 -2 10 -4z m-7630 -27 c0 -18 -2 -20
-15 -9 -13 11 -13 15 -3 21 18 12 18 12 18 -12z m617 -11 c-6 -4 -16 -3 -22 3
-6 6 -5 13 5 19 9 6 17 5 22 -3 4 -6 2 -15 -5 -19z m-680 -24 c-9 -9 -28 6
-21 18 4 6 10 6 17 -1 6 -6 8 -13 4 -17z m6333 -29 c-7 -9 -15 -13 -18 -10 -3
2 1 11 8 20 7 9 15 13 18 10 3 -2 -1 -11 -8 -20z m-1170 -5 c0 -5 8 -6 18 -3
15 6 15 5 3 -10 -10 -13 -17 -15 -27 -6 -16 13 -18 29 -4 29 6 0 10 -4 10 -10z
m-4370 -17 c0 -10 -4 -14 -8 -8 -4 6 -11 13 -16 18 -5 4 -2 7 7 7 10 0 17 -8
17 -17z m891 4 c-6 -8 -8 -17 -4 -20 3 -4 1 -7 -5 -7 -6 0 -10 9 -9 20 1 11 8
20 15 20 11 0 12 -3 3 -13z m4943 -11 c3 -14 12 -31 20 -39 12 -11 39 -136 31
-145 -7 -8 -35 12 -35 25 0 9 -6 13 -14 10 -7 -3 -19 0 -25 6 -6 6 -27 10 -46
8 -27 -2 -35 1 -35 14 0 13 6 16 22 12 12 -4 28 -1 36 5 11 10 16 8 24 -5 5
-10 13 -15 19 -12 5 4 9 1 9 -6 0 -18 13 -2 17 21 2 14 -2 18 -12 14 -8 -4
-15 -1 -15 5 0 6 5 11 10 11 6 0 10 5 10 11 0 6 -7 9 -15 5 -9 -3 -15 0 -15 9
0 8 -7 15 -16 15 -11 0 -15 -6 -12 -17 2 -10 -4 -26 -15 -36 -18 -18 -19 -18
-24 3 -4 17 -11 20 -32 16 -14 -3 -37 1 -51 9 -21 13 -22 15 -5 13 15 -2 19 2
18 20 -2 18 3 22 25 23 53 3 57 4 70 12 6 5 17 5 22 2 6 -3 10 -1 10 4 0 21
18 11 24 -13z m148 -23 c24 -25 105 -186 123 -243 7 -21 6 -21 -19 -5 -18 12
-26 26 -26 45 0 30 -23 56 -40 45 -7 -4 -9 2 -4 19 5 21 2 27 -18 35 -16 6
-27 22 -35 52 -6 24 -15 52 -18 62 -10 26 8 21 37 -10z m-7152 -4 c0 -6 -7 -8
-15 -5 -11 4 -19 -3 -25 -20 -9 -22 -13 -24 -25 -14 -12 10 -15 9 -15 -5 0
-15 -3 -15 -15 -5 -14 12 -13 16 6 37 24 24 89 33 89 12z m8008 -29 c-7 -11
-16 -20 -21 -20 -4 0 -3 9 3 20 6 11 15 20 20 20 6 0 5 -9 -2 -20z m-153 0 c3
-5 1 -10 -4 -10 -6 0 -11 5 -11 10 0 6 2 10 4 10 3 0 8 -4 11 -10z m-8345 -20
c0 -5 -5 -10 -11 -10 -5 0 -7 5 -4 10 3 6 8 10 11 10 2 0 4 -4 4 -10z m5930 0
c0 -5 -7 -10 -16 -10 -8 0 -12 5 -9 10 3 6 10 10 16 10 5 0 9 -4 9 -10z
m-6055 -10 c-3 -5 -10 -10 -16 -10 -5 0 -9 5 -9 10 0 6 7 10 16 10 8 0 12 -4
9 -10z m8855 -6 c0 -13 3 -14 14 -5 11 9 12 6 8 -14 -2 -14 -11 -25 -19 -25
-8 0 -11 -5 -8 -10 4 -6 -4 -19 -17 -30 -24 -19 -20 -25 27 -32 15 -2 19 2 17
16 -3 17 -2 18 12 7 19 -16 13 -29 -20 -41 -20 -8 -23 -14 -18 -40 4 -19 2
-30 -5 -30 -6 0 -11 6 -12 13 0 9 -2 9 -6 0 -6 -16 18 -41 35 -35 6 2 20 -4
29 -14 17 -17 17 -17 -4 -12 -16 4 -23 2 -23 -9 0 -8 5 -11 13 -7 10 6 10 4 0
-7 -21 -22 -15 -29 27 -29 43 0 53 -17 25 -40 -10 -9 -15 -9 -15 -1 0 6 -8 11
-17 11 -15 -1 -13 -5 8 -24 l27 -23 -28 1 c-16 1 -26 4 -24 8 11 18 -19 17
-35 -1 -10 -11 -21 -18 -25 -14 -3 3 -6 1 -6 -5 0 -5 -3 -19 -6 -29 -4 -13 -3
-15 4 -5 7 11 11 8 14 -12 3 -15 1 -29 -3 -32 -5 -3 -9 -12 -9 -20 0 -10 6
-13 19 -9 12 4 21 0 25 -11 5 -12 2 -15 -9 -10 -11 4 -19 -3 -25 -20 -13 -33
-13 -34 5 -34 20 0 14 -65 -9 -111 -14 -27 -14 -33 -1 -46 17 -16 10 -37 -9
-30 -7 3 -18 -5 -25 -16 -11 -18 -11 -20 0 -9 18 17 36 15 43 -4 4 -11 2 -15
-8 -11 -8 3 -16 1 -18 -4 -2 -6 -16 -1 -30 11 -19 14 -34 42 -48 88 -11 37
-33 87 -50 112 -39 58 -38 73 5 93 19 9 35 24 35 33 0 9 9 29 21 45 25 35 19
59 -14 59 -20 0 -23 -4 -20 -24 7 -33 -52 -99 -67 -76 -5 8 -10 32 -10 53 0
21 -11 60 -25 87 -25 50 -33 86 -16 75 6 -3 13 10 17 30 3 19 10 38 15 41 5 3
15 20 23 38 10 24 22 35 45 39 21 5 31 12 31 25 0 10 9 28 20 40 24 26 60 29
60 6 0 -19 25 -13 25 7 1 33 35 55 35 23z m-8553 -10 c13 -13 14 -17 3 -24 -9
-6 -7 -11 9 -19 27 -15 28 -31 1 -24 -17 5 -20 0 -20 -27 0 -32 -1 -33 -20
-15 -10 9 -26 15 -35 12 -8 -4 -15 -2 -15 2 0 5 -3 16 -6 24 -3 9 2 16 14 19
11 3 21 18 25 37 7 34 20 39 44 15z m-220 -30 c10 -27 -11 -35 -24 -8 -9 19
-8 24 3 24 8 0 17 -7 21 -16z m6133 -14 c0 -5 -8 -10 -17 -10 -15 0 -16 2 -3
10 19 12 20 12 20 0z m150 -6 c0 -16 -2 -16 -24 -8 -22 8 -20 19 4 21 11 1 20
-4 20 -13z m2320 1 c0 -8 -14 -25 -31 -37 -17 -13 -43 -49 -58 -80 -28 -56
-28 -57 -40 -32 -6 14 -15 23 -20 20 -5 -4 -7 4 -4 15 4 14 0 25 -11 31 -14 8
-15 13 -5 24 10 12 13 12 25 -3 10 -14 15 -15 25 -6 10 10 9 17 -6 33 -18 19
-18 20 2 20 11 0 25 6 31 13 16 18 92 20 92 2z m-6735 -14 c3 -5 1 -12 -4 -15
-5 -3 -11 1 -15 9 -6 16 9 21 19 6z m5675 -11 c0 -5 -7 -10 -16 -10 -8 0 -12
5 -9 10 3 6 10 10 16 10 5 0 9 -4 9 -10z m-6315 -19 c-8 -15 -65 -14 -65 0 0
7 10 9 25 7 14 -3 28 -1 31 4 3 5 8 7 11 4 3 -2 2 -9 -2 -15z m-120 -22 c-3
-4 -23 -7 -45 -6 -27 1 -36 5 -30 12 11 13 83 7 75 -6z m6290 11 c3 -5 -1 -10
-9 -10 -9 0 -13 -6 -10 -14 3 -8 13 -12 25 -9 10 3 16 10 12 15 -3 6 0 9 8 6
26 -9 14 -31 -25 -44 -21 -8 -45 -19 -53 -25 -7 -7 -17 -9 -20 -5 -4 4 -1 11
6 15 9 6 10 11 2 15 -6 4 -11 2 -11 -3 0 -6 -4 -11 -10 -11 -5 0 -10 7 -10 15
0 8 5 15 10 15 6 0 13 0 18 1 4 0 13 11 20 25 13 25 36 32 47 14z m-5099 -15
c-22 -17 -36 -19 -36 -7 0 14 12 22 34 22 21 -1 21 -1 2 -15z m4929 -5 c3 -5
1 -10 -4 -10 -6 0 -11 5 -11 10 0 6 2 10 4 10 3 0 8 -4 11 -10z m67 -12 c-7
-7 -12 -8 -12 -2 0 14 12 26 19 19 2 -3 -1 -11 -7 -17z m-5192 5 c0 -1 -8 -7
-19 -12 -13 -7 -23 -6 -35 2 -16 11 -13 13 18 13 20 0 36 -1 36 -3z m-130 -23
c0 -5 -4 -10 -9 -10 -6 0 -13 5 -16 10 -3 6 1 10 9 10 9 0 16 -4 16 -10z
m-3417 -41 c50 -33 54 -38 36 -56 -16 -16 -39 -5 -50 23 -6 17 -16 24 -34 24
-24 0 -34 18 -18 33 10 11 17 9 66 -24z m3768 11 c18 -10 28 -60 11 -60 -11 0
-52 47 -52 60 0 13 16 13 41 0z m4739 0 c0 -5 -2 -10 -4 -10 -3 0 -8 5 -11 10
-3 6 -1 10 4 10 6 0 11 -4 11 -10z m526 -11 c3 -5 0 -8 -7 -7 -7 2 -13 -2 -14
-8 0 -9 -29 -44 -37 -44 -3 0 -3 58 0 71 3 9 51 -2 58 -12z m-5921 1 c3 -5 15
-10 27 -10 30 0 78 -32 75 -50 -1 -10 6 -15 23 -16 44 -1 48 -3 53 -30 5 -26
-25 -70 -41 -61 -4 2 -22 9 -39 16 -18 7 -33 17 -33 23 0 5 -5 6 -10 3 -6 -3
-7 -17 -4 -31 7 -28 -2 -31 -28 -7 -17 15 -18 15 -18 -5 0 -12 -4 -22 -10 -22
-5 0 -7 6 -4 13 3 8 -6 18 -19 24 -20 9 -31 8 -57 -8 -32 -20 -32 -20 -52 0
-10 12 -14 21 -9 21 6 0 14 -7 19 -17 8 -14 15 -11 56 23 25 21 46 40 46 43 0
2 -8 10 -17 17 -15 11 -16 15 -4 23 11 7 10 12 -8 22 -32 21 -26 39 13 39 19
0 38 -4 41 -10z m315 1 c0 -5 -7 -12 -16 -15 -14 -5 -15 -4 -4 9 14 17 20 19
20 6z m6345 -17 c14 -9 22 -21 19 -26 -4 -6 -1 -8 7 -6 8 3 13 12 11 19 -7 26
37 -23 62 -71 25 -47 21 -70 -9 -70 -7 0 -26 -7 -42 -15 -17 -9 -50 -15 -74
-14 -24 0 -58 -2 -76 -6 l-31 -7 -7 56 c-15 119 59 193 140 140z m-1037 -12
c5 -17 -33 -15 -48 2 -10 13 -7 15 16 13 15 -1 29 -8 32 -15z m154 -27 c-13
-26 -27 -38 -55 -45 -20 -6 -42 -8 -47 -5 -18 11 10 46 53 66 62 28 70 25 49
-16z m60 5 c3 -23 1 -30 -9 -26 -7 3 -13 -1 -13 -10 0 -8 -4 -12 -10 -9 -15
10 -12 45 5 45 9 0 12 6 9 15 -4 8 -2 15 4 15 5 0 12 -14 14 -30z m-5621 -16
c-9 -28 -9 -29 -10 -3 -1 14 2 29 6 32 11 12 13 2 4 -29z m99 26 c0 -5 9 -10
21 -10 23 0 21 -24 -2 -26 -8 -1 -19 -2 -26 -3 -6 0 -9 -9 -6 -20 3 -10 0 -22
-6 -25 -6 -4 -11 1 -11 11 0 11 -6 28 -14 38 -12 17 -11 21 8 31 27 15 36 16
36 4z m8591 0 c5 0 9 -5 9 -11 0 -15 -43 -7 -48 10 -3 10 0 12 12 8 10 -4 22
-7 27 -7z m-3368 -25 c17 -5 33 -2 42 5 23 19 31 3 10 -20 -35 -39 -117 -17
-101 27 5 12 9 14 14 6 4 -6 20 -15 35 -18z m-8530 -5 c-4 -14 0 -20 11 -20 9
0 16 -4 16 -10 0 -5 -12 -10 -26 -10 -21 0 -24 -4 -19 -20 11 -33 -5 -22 -20
14 -18 42 -11 66 20 66 18 0 22 -4 18 -20z m8448 -9 c-7 -5 -10 -14 -6 -21 5
-8 0 -7 -14 2 -26 16 -26 24 -3 37 21 12 44 -5 23 -18z m-241 -1 c0 -5 -9 -10
-21 -10 -11 0 -17 5 -14 10 3 6 13 10 21 10 8 0 14 -4 14 -10z m3770 -19 c0
-17 5 -33 10 -36 16 -10 12 -42 -6 -49 -48 -18 -96 13 -60 40 9 6 16 16 16 22
0 5 7 12 15 16 8 3 12 12 9 21 -3 8 -1 15 5 15 6 0 11 -13 11 -29z m-3095 -1
c-4 -12 -1 -27 5 -35 15 -18 9 -19 -25 -3 -31 14 -31 22 -3 42 29 20 31 20 23
-4z m105 5 c0 -2 -7 -5 -15 -9 -9 -3 -15 0 -15 9 0 9 6 12 15 9 8 -4 15 -7 15
-9z m-620 -15 c8 -5 11 -12 8 -16 -4 -3 -14 1 -23 10 -18 17 -9 21 15 6z m125
-10 c0 -7 -6 -15 -12 -17 -8 -3 -13 4 -13 17 0 13 5 20 13 18 6 -3 12 -11 12
-18z m-8340 -37 c0 -29 -5 -48 -13 -51 -10 -3 -12 4 -7 31 4 21 3 37 -4 41
-17 11 -13 26 7 26 15 0 18 -8 17 -47z m8505 37 c0 -5 -4 -10 -10 -10 -5 0
-10 5 -10 10 0 6 5 10 10 10 6 0 10 -4 10 -10z m-410 -30 c0 -5 -2 -10 -4 -10
-3 0 -8 5 -11 10 -3 6 -1 10 4 10 6 0 11 -4 11 -10z m2019 -6 c1 -1 1 -8 -1
-15 -3 -9 -8 -8 -18 3 -8 8 -24 13 -35 11 -16 -4 -17 -3 -5 6 13 9 46 6 59 -5z
m-6643 -27 c1 -9 -2 -17 -6 -17 -5 0 -15 -3 -24 -6 -13 -5 -13 -2 -3 20 13 28
29 30 33 3z m8168 7 c10 -25 1 -27 -19 -4 -15 17 -16 20 -3 20 9 0 19 -7 22
-16z m-10634 -34 c-6 -11 -13 -20 -15 -20 -3 0 -5 9 -5 20 0 11 7 20 15 20 13
0 14 -4 5 -20z m8973 2 c-1 -5 7 -12 17 -15 14 -4 20 0 20 11 0 12 3 13 11 5
8 -8 7 -19 -2 -39 -19 -38 -33 -40 -63 -7 -30 32 -34 56 -9 46 12 -5 14 -3 8
7 -5 8 -3 11 6 8 8 -3 13 -10 12 -16z m1767 8 c0 -5 -2 -10 -4 -10 -3 0 -8 5
-11 10 -3 6 -1 10 4 10 6 0 11 -4 11 -10z m-11930 -10 c0 -5 -2 -10 -4 -10 -3
0 -8 5 -11 10 -3 6 -1 10 4 10 6 0 11 -4 11 -10z m1220 -40 c8 -5 11 -10 5
-10 -5 0 -17 5 -25 10 -8 5 -10 10 -5 10 6 0 17 -5 25 -10z m10693 -22 c14
-25 15 -33 5 -39 -17 -11 -30 -11 -48 1 -13 8 -12 10 3 10 18 0 24 25 7 35
-14 9 -12 25 3 25 6 0 20 -14 30 -32z m-12078 2 c3 -5 20 -9 37 -7 26 2 32 -3
41 -26 7 -23 6 -32 -8 -45 -10 -10 -15 -12 -11 -5 9 16 -76 65 -98 57 -16 -6
-23 15 -9 29 10 10 41 8 48 -3z m138 -53 c-9 -16 -24 9 -17 28 7 18 8 18 14
-1 4 -10 5 -23 3 -27z m9526 16 l52 -26 29 21 29 22 30 -39 c17 -21 31 -48 31
-60 0 -12 5 -21 10 -21 11 0 8 52 -6 99 -7 24 -7 24 52 16 32 -4 62 -9 67 -12
13 -8 7 -80 -8 -93 -18 -15 -20 -40 -2 -40 6 0 25 7 41 15 28 15 46 13 46 -6
0 -6 7 -17 15 -25 8 -9 17 -27 20 -42 3 -15 10 -49 16 -75 6 -27 9 -50 7 -53
-3 -2 -31 1 -64 7 -32 6 -80 9 -106 6 -41 -5 -51 -2 -79 21 -18 15 -44 40 -58
56 -14 17 -50 55 -78 86 -29 31 -53 61 -53 67 0 6 -18 31 -41 57 -34 39 -38
46 -21 46 11 0 43 -12 71 -27z m-8729 7 c0 -5 -4 -10 -10 -10 -5 0 -10 5 -10
10 0 6 5 10 10 10 6 0 10 -4 10 -10z m9478 -25 c-3 -3 -9 2 -12 12 -6 14 -5
15 5 6 7 -7 10 -15 7 -18z m-8868 -30 c10 -12 10 -15 -3 -15 -8 0 -23 3 -32 6
-13 5 -14 8 -3 15 18 12 24 11 38 -6z m6489 -46 c-16 -10 -23 -4 -14 10 3 6
11 8 17 5 6 -4 5 -9 -3 -15z m1325 0 c-3 -5 -20 -9 -38 -9 -19 0 -39 -6 -45
-14 -7 -8 -25 -19 -42 -25 -26 -9 -28 -8 -20 8 6 10 17 24 26 31 29 24 134 32
119 9z m-7885 -8 c8 -13 7 -22 -2 -29 -21 -18 -66 -25 -81 -13 -12 10 -46 6
-46 -6 0 -15 34 -64 50 -73 26 -14 29 -85 4 -94 -14 -6 -15 -9 -2 -29 8 -12
18 -58 21 -102 4 -44 16 -113 27 -154 11 -40 22 -94 25 -120 6 -44 4 -49 -51
-121 -31 -41 -58 -77 -60 -79 -6 -7 -44 31 -44 44 0 6 20 43 45 81 59 92 47
95 -52 14 -7 -6 -10 -17 -7 -25 6 -15 -13 -20 -61 -16 -29 3 -155 53 -155 62
0 4 19 2 42 -4 37 -9 43 -8 60 12 10 13 18 27 18 31 0 8 -47 7 -70 -3 -40 -16
-90 -25 -96 -16 -3 5 7 9 22 9 21 0 25 4 21 20 -4 15 0 20 15 20 15 0 18 3 10
13 -5 6 -12 28 -14 47 -3 34 -2 35 42 42 25 4 58 4 73 1 23 -4 35 3 67 36 22
23 40 48 40 56 0 21 -13 19 -28 -5 -17 -27 -46 -25 -60 4 -8 19 -8 27 3 36 8
7 21 10 29 7 8 -3 20 1 27 9 9 11 22 14 41 10 21 -4 30 -1 39 15 14 26 6 34
-20 20 -21 -12 -38 0 -26 19 3 6 3 15 -1 22 -5 7 -12 5 -22 -8 -13 -17 -14
-16 -8 21 5 36 3 41 -21 52 -18 9 -30 9 -39 3 -6 -6 -31 -16 -55 -23 -43 -13
-44 -14 -41 -52 3 -35 2 -37 -13 -25 -14 12 -16 11 -12 -11 2 -13 2 -18 0 -11
-3 9 -14 11 -36 6 -47 -10 -52 -10 -54 1 -2 5 3 10 10 10 39 3 59 35 21 35 -8
0 -31 11 -51 25 -41 27 -67 21 -83 -21 -12 -31 -25 -30 -63 2 -25 21 -37 24
-65 19 -23 -4 -32 -3 -27 4 3 6 16 11 28 11 25 0 167 76 167 89 0 5 9 20 21
34 19 25 22 26 44 11 14 -9 53 -16 103 -18 77 -4 81 -3 113 26 25 23 39 29 60
24 18 -3 32 0 40 10 11 14 106 64 121 64 4 0 12 -9 17 -19z m1886 -1 c3 -5 -1
-10 -10 -10 -9 0 -13 5 -10 10 3 6 8 10 10 10 2 0 7 -4 10 -10z m4648 -34 c27
-9 20 -26 -12 -26 -21 0 -31 -6 -36 -22 -7 -20 -9 -17 -12 17 -3 22 -9 46 -16
53 -8 10 -3 10 24 -2 19 -8 42 -17 52 -20z m-4583 15 c0 -18 -18 -21 -30 -6
-10 13 -9 15 9 15 11 0 21 -4 21 -9z m-2180 -19 c0 -19 -27 -32 -69 -32 -49 0
-81 13 -63 24 6 3 13 2 17 -4 10 -16 62 -12 69 5 6 15 46 21 46 7z m-175 -22
c8 -13 -5 -13 -25 0 -13 8 -13 10 2 10 9 0 20 -4 23 -10z m505 0 c0 -5 -2 -10
-4 -10 -3 0 -8 5 -11 10 -3 6 -1 10 4 10 6 0 11 -4 11 -10z m8730 0 c0 -5 -5
-10 -11 -10 -5 0 -7 5 -4 10 3 6 8 10 11 10 2 0 4 -4 4 -10z m-8757 -14 c27
-21 57 -121 57 -193 0 -34 -3 -63 -6 -63 -7 0 -44 44 -61 74 -7 12 -12 47 -13
79 0 43 -5 62 -20 77 -18 18 -18 20 -2 29 22 13 23 13 45 -3z m8847 -18 c12
-8 12 -8 -3 -4 -22 7 -41 -10 -50 -46 -7 -27 -38 -45 -57 -33 -8 5 -7 11 0 20
7 8 9 19 5 24 -3 6 -2 19 4 29 11 20 76 27 101 10z m128 -7 c3 -8 -1 -12 -9
-9 -7 2 -15 10 -17 17 -3 8 1 12 9 9 7 -2 15 -10 17 -17z m-78 -25 c0 -17 2
-18 10 -6 8 13 10 12 10 -2 0 -10 -4 -18 -9 -18 -25 0 -41 14 -41 36 0 17 4
22 15 18 8 -4 15 -16 15 -28z m-61 -38 c6 -17 3 -26 -13 -39 -15 -13 -23 -14
-28 -6 -6 9 -10 8 -17 -2 -6 -10 -10 -10 -16 -1 -8 13 10 30 32 30 6 0 15 9
18 20 8 26 14 25 24 -2z m37 -5 c-7 -7 -26 7 -26 19 0 6 6 6 15 -2 9 -7 13
-15 11 -17z m-2516 -13 c0 -5 10 -10 22 -10 17 0 19 -3 10 -12 -10 -10 -17 -7
-34 10 -12 12 -17 22 -10 22 7 0 12 -4 12 -10z m147 -15 c-6 -7 -15 -11 -19
-8 -14 8 -8 19 12 20 16 1 17 -1 7 -12z m-4560 -15 c2 0 3 -7 3 -15 0 -10 10
-15 31 -15 17 0 42 -9 56 -20 15 -12 41 -20 62 -20 20 0 41 -4 47 -8 19 -13
25 -44 12 -60 -11 -12 -9 -17 10 -30 26 -17 29 -49 5 -55 -26 -7 -84 0 -95 11
-6 6 3 12 26 16 46 9 48 30 3 24 -34 -4 -75 21 -49 30 20 6 13 19 -13 24 -13
3 -22 2 -20 -2 7 -12 -32 -19 -42 -9 -5 5 -56 11 -114 12 -57 2 -114 9 -126
16 -30 16 -29 23 2 15 18 -4 30 0 47 19 13 13 33 27 46 31 13 4 27 18 32 31 8
21 12 23 42 14 18 -5 34 -9 35 -9z m4495 8 c-7 -7 -12 -22 -12 -34 0 -17 -4
-21 -20 -17 -24 6 -26 28 -4 37 8 3 12 10 9 16 -3 6 4 10 16 10 18 0 20 -3 11
-12z m-8071 -51 c-10 -9 -11 -8 -5 6 3 10 9 15 12 12 3 -3 0 -11 -7 -18z
m1634 -105 c19 -18 35 -37 35 -42 0 -5 -17 -36 -37 -67 -36 -57 -37 -57 -47
-33 -6 14 -15 32 -21 40 -11 17 -12 29 -15 130 -3 107 -3 108 25 54 14 -27 41
-64 60 -82z m2405 108 c0 -5 -2 -10 -4 -10 -3 0 -8 5 -11 10 -3 6 -1 10 4 10
6 0 11 -4 11 -10z m-3200 -51 c0 -5 -6 -9 -13 -9 -7 0 -13 9 -13 19 0 15 3 17
13 9 7 -6 13 -14 13 -19z m6196 -106 c14 -19 41 -41 59 -50 45 -22 52 -61 26
-158 -6 -22 -11 -83 -12 -135 0 -52 -6 -131 -13 -175 l-12 -80 -18 36 c-9 20
-19 50 -21 65 -6 46 -34 122 -60 160 -13 20 -33 77 -46 132 -12 53 -26 105
-31 115 -6 12 -3 26 12 47 27 38 50 104 51 149 0 36 1 36 20 -18 10 -29 30
-69 45 -88z m-6976 123 c0 -21 -22 -58 -30 -50 -13 13 -1 54 16 54 8 0 14 -2
14 -4z m875 -44 c-3 -3 -11 0 -18 7 -9 10 -8 11 6 5 10 -3 15 -9 12 -12z
m2245 -12 c0 -11 -4 -20 -9 -20 -13 0 -32 26 -24 33 13 14 33 6 33 -13z m-153
-42 c-3 -8 -6 -5 -6 6 -1 11 2 17 5 13 3 -3 4 -12 1 -19z m-2289 -10 c8 -8 15
-8 25 1 12 9 16 8 21 -5 10 -25 -2 -34 -45 -34 -35 0 -39 3 -39 25 0 26 18 33
38 13z m452 -9 c0 6 14 11 30 11 17 0 30 -4 30 -10 0 -17 -35 -29 -104 -36
-39 -4 -70 -12 -73 -19 -2 -7 -13 -11 -23 -8 -23 6 -48 -33 -31 -50 6 -6 11
-17 11 -24 0 -16 -32 -17 -48 -1 -9 9 -16 8 -29 -5 -13 -11 -23 -13 -36 -5
-10 5 -25 7 -34 3 -15 -5 -32 9 -33 28 0 4 16 7 35 7 29 0 35 4 33 18 -2 13 3
16 27 14 l30 -2 -25 15 c-24 14 -24 14 -3 15 12 0 24 4 28 10 3 5 13 6 21 3
10 -4 17 2 21 15 4 17 9 19 34 12 33 -10 96 -2 105 12 3 5 12 4 20 -3 10 -8
14 -8 14 0z m6020 -53 c0 -39 26 -118 49 -146 42 -53 45 -71 16 -111 -28 -38
-85 -152 -85 -170 0 -11 -68 -109 -76 -109 -2 0 -1 19 2 43 2 23 9 112 13 197
10 178 25 270 49 288 15 11 32 16 32 8z m-4933 -23 c2 -6 -9 -14 -26 -18 -33
-7 -145 -76 -174 -106 -10 -11 -33 -20 -52 -20 -19 -1 -41 -2 -47 -3 -7 -1
-14 8 -16 20 -6 40 127 110 220 116 37 3 52 8 50 17 -3 16 40 11 45 -6z
m-1417 -7 c0 -2 -7 -6 -15 -10 -8 -3 -15 -1 -15 4 0 6 7 10 15 10 8 0 15 -2
15 -4z m9505 -26 c6 -4 34 -13 63 -21 28 -7 52 -15 52 -18 -1 -14 -40 -51 -53
-51 -8 0 -21 17 -30 38 -15 37 -15 37 -10 5 5 -28 2 -33 -14 -33 -25 0 -65 29
-60 43 3 7 -5 23 -17 35 l-21 24 40 -7 c22 -4 45 -11 50 -15z m2078 -74 c14
-35 -20 -117 -59 -143 -25 -16 -26 -15 -54 15 -19 21 -44 35 -75 42 -53 12
-105 36 -105 49 0 18 37 22 135 15 94 -6 101 -5 119 15 22 25 32 26 39 7z
m-1819 -2 c27 -10 18 -22 -20 -26 -40 -5 -53 6 -27 21 21 12 26 13 47 5z
m-9818 -35 c10 -16 -15 -28 -59 -27 -37 0 -37 1 -21 19 19 21 69 26 80 8z
m365 -94 c27 -14 52 -32 55 -39 3 -8 25 -24 49 -37 35 -19 44 -29 49 -58 11
-67 7 -107 -13 -125 -11 -10 -22 -28 -25 -42 -4 -13 -13 -24 -21 -24 -8 0 -15
-6 -15 -12 0 -11 -21 -25 -68 -45 -8 -3 -10 0 -6 10 3 8 1 18 -5 22 -11 6 -32
-34 -25 -46 7 -13 -48 -20 -61 -9 -8 7 -23 9 -35 5 -33 -10 -57 3 -64 36 -8
43 -66 90 -66 54 0 -18 -2 -18 -35 -3 -21 10 -28 9 -35 -2 -7 -12 -12 -11 -29
4 -26 24 -27 36 -2 36 10 0 24 7 31 15 10 12 16 13 27 4 22 -19 41 5 25 32
-16 25 -8 39 22 39 13 0 29 7 36 15 10 12 8 16 -11 24 l-24 10 23 0 c18 1 22
5 18 19 -5 16 2 18 68 19 41 0 79 4 85 7 18 12 12 65 -9 86 -11 11 -20 22 -20
25 0 12 34 3 81 -20z m245 -162 c-4 -4 -11 -1 -16 7 -16 25 -11 35 7 17 9 -9
13 -20 9 -24z m-686 -133 c12 -8 12 -10 -5 -10 -15 -1 -4 -15 45 -60 36 -33
72 -59 81 -60 21 0 76 -24 111 -48 l27 -18 -52 -41 c-52 -40 -173 -96 -189
-87 -4 3 -8 14 -8 25 0 11 -14 46 -31 79 l-30 59 26 45 27 46 -21 34 c-12 18
-21 36 -21 40 0 9 23 7 40 -4z m10228 -1206 c2 -21 -10 -54 -37 -105 l-41 -74
0 39 c0 59 40 177 60 174 9 -2 16 -16 18 -34z m-138 -46 c22 -49 24 -107 6
-157 -12 -35 -12 -34 -24 50 -13 90 -15 149 -7 149 4 0 15 -19 25 -42z m-1497
12 c-8 -30 -21 -34 -15 -5 2 14 8 25 12 25 5 0 6 -9 3 -20z m1707 -15 l24 -25
-45 -47 c-24 -26 -45 -50 -46 -52 -2 -2 -5 -2 -8 0 -4 5 22 125 31 140 9 14
19 11 44 -16z m-904 -22 c-7 -16 -17 -43 -21 -61 -5 -25 -10 -31 -18 -23 -22
22 -28 10 -9 -16 15 -21 17 -34 10 -52 -14 -38 -28 -13 -35 62 -6 64 -5 67 18
76 14 5 31 16 38 25 22 26 33 18 17 -11z m1061 -16 c13 -18 26 -47 29 -65 7
-34 -2 -102 -14 -102 -4 0 -17 25 -30 54 -13 30 -33 64 -44 75 -17 19 -18 24
-6 39 31 40 38 40 65 -1z m147 17 c8 -3 13 -11 11 -17 -2 -7 -6 -25 -10 -42
-7 -27 -8 -28 -15 -10 -9 21 -13 75 -6 75 2 0 11 -3 20 -6z m-2282 -71 l-10
-38 -1 50 c-1 36 2 46 10 38 8 -8 8 -22 1 -50z m868 27 c0 -23 -5 -30 -19 -30
-28 0 -33 13 -15 38 21 31 34 27 34 -8z m1380 -10 c0 -39 -13 -54 -23 -27 -7
18 3 67 14 67 5 0 9 -18 9 -40z m-220 22 c0 -12 -57 -62 -70 -62 -16 0 -12 12
17 42 26 27 53 37 53 20z m-1920 -16 c0 -3 -4 -8 -10 -11 -5 -3 -10 -1 -10 4
0 6 5 11 10 11 6 0 10 -2 10 -4z m1157 -47 c-3 -10 -1 -17 3 -14 13 8 17 -4
25 -71 6 -56 5 -62 -13 -66 -18 -5 -20 -2 -16 31 l5 36 -15 -30 c-12 -23 -14
-25 -10 -6 4 14 1 27 -7 32 -10 6 -10 13 -1 34 7 15 10 31 6 36 -3 5 -2 24 1
41 6 27 9 29 17 14 6 -10 8 -26 5 -37z m208 -26 c-6 -33 -25 -46 -25 -18 0 8
6 15 13 15 9 0 8 3 -2 9 -9 6 -11 18 -6 42 8 34 8 34 17 9 5 -14 7 -40 3 -57z
m583 52 c16 -35 15 -52 -5 -73 -10 -9 -24 -40 -31 -67 -13 -50 -34 -77 -40
-51 -2 7 4 42 12 77 8 35 11 65 6 67 -9 3 30 72 41 72 3 0 11 -11 17 -25z
m421 -34 l1 -48 -35 1 c-19 1 -35 4 -35 9 -1 24 40 78 66 87 0 0 2 -22 3 -49z
m-869 12 c0 -34 -12 -63 -26 -63 -7 0 -12 6 -10 13 3 6 7 24 10 40 7 30 26 37
26 10z m-1323 -15 c-3 -8 -6 -5 -6 6 -1 11 2 17 5 13 3 -3 4 -12 1 -19z m286
7 c-3 -9 -8 -14 -10 -11 -3 3 -2 9 2 15 9 16 15 13 8 -4z m1677 -56 c0 -8 -6
-23 -13 -34 -13 -16 -14 -14 -20 26 -3 25 -9 54 -12 64 -5 14 1 11 19 -10 14
-16 26 -37 26 -46z m-2372 43 c6 -18 -15 -14 -22 4 -4 10 -1 14 6 12 6 -2 14
-10 16 -16z m1675 -31 c-14 -35 -30 -49 -36 -31 -3 8 43 83 48 78 3 -2 -3 -23
-12 -47z m-1029 12 c-5 -29 -11 -39 -18 -32 -7 7 6 59 15 59 4 0 5 -12 3 -27z
m216 17 c0 -5 -4 -10 -10 -10 -5 0 -10 5 -10 10 0 6 5 10 10 10 6 0 10 -4 10
-10z m900 -22 c0 -5 -4 -8 -10 -8 -5 0 -10 10 -10 23 0 18 2 19 10 7 5 -8 10
-18 10 -22z m1107 -8 c18 -22 16 -28 -19 -50 -42 -25 -45 -25 -45 4 0 16 8 28
26 37 25 12 25 13 4 17 -14 2 -20 8 -16 18 4 12 8 12 22 2 9 -7 21 -20 28 -28z
m-2790 8 c-3 -8 -6 -5 -6 6 -1 11 2 17 5 13 3 -3 4 -12 1 -19z m867 7 c-4 -8
-8 -15 -10 -15 -2 0 -4 7 -4 15 0 8 4 15 10 15 5 0 7 -7 4 -15z m1701 -11 c15
-24 15 -27 -1 -52 l-18 -27 -7 30 c-17 75 -5 96 26 49z m-1905 -15 c0 -5 -4
-9 -10 -9 -5 0 -10 7 -10 16 0 8 5 12 10 9 6 -3 10 -10 10 -16z m1100 -9 c0
-16 -4 -30 -9 -30 -10 0 -22 40 -15 52 11 18 24 6 24 -22z m480 -23 c0 -10 -4
-15 -10 -12 -5 3 -10 18 -10 33 0 21 2 24 10 12 5 -8 10 -23 10 -33z m450 32
c0 -5 -4 -9 -10 -9 -5 0 -10 -6 -10 -14 0 -7 -9 -16 -21 -19 -17 -5 -18 -3 -7
11 11 14 10 15 -6 9 -12 -5 -23 -3 -28 5 -13 22 -9 25 37 26 25 0 45 -4 45 -9z
m-10384 -14 c10 -26 0 -37 -20 -22 -11 8 -16 19 -12 25 10 16 26 15 32 -3z
m6739 -15 c9 -17 16 -51 17 -76 0 -38 -4 -51 -27 -72 -24 -24 -27 -24 -22 -7
2 11 8 29 13 39 4 12 4 17 -3 13 -5 -3 -15 -24 -23 -46 -7 -23 -24 -48 -38
-57 -23 -15 -24 -15 -16 8 5 12 9 40 9 60 0 20 6 43 13 49 6 7 12 17 12 21 0
10 41 98 46 98 2 0 11 -14 19 -30z m2358 23 c2 -5 -1 -21 -8 -37 -14 -34 -29
-20 -19 19 6 24 19 33 27 18z m-8953 -11 c0 -16 -72 -146 -93 -169 -30 -33
-39 -28 -23 12 10 23 13 52 9 84 -8 73 -2 81 57 81 27 0 50 -4 50 -8z m9696
-57 c-11 -30 -21 -14 -17 28 4 41 4 41 13 14 6 -15 7 -34 4 -42z m-2310 15
c11 -27 3 -83 -9 -63 -4 6 -10 33 -13 60 -7 49 3 51 22 3z m2145 -14 c-11 -25
-25 -46 -30 -46 -14 0 -14 17 -1 25 6 4 17 23 25 42 9 20 18 34 21 30 3 -3 -3
-26 -15 -51z m-9545 -63 c-30 -60 -61 -117 -70 -128 -15 -20 -15 -20 -16 1 0
32 113 234 131 234 5 0 -15 -48 -45 -107z m9292 64 c-6 -38 -28 -31 -28 8 0
33 2 36 15 25 9 -7 15 -22 13 -33z m284 11 c-8 -8 -9 -4 -5 13 4 13 8 18 11
10 2 -7 -1 -18 -6 -23z m-11168 16 c9 -3 16 -14 16 -23 0 -13 2 -13 9 -3 9 15
42 13 48 -3 1 -5 -15 -30 -36 -55 -35 -39 -39 -42 -36 -20 3 15 0 11 -8 -10
-13 -38 -78 -133 -85 -125 -2 2 5 39 16 82 11 43 26 97 32 121 11 43 16 47 44
36z m11852 -31 c-11 -11 -19 6 -11 24 8 17 8 17 12 0 3 -10 2 -21 -1 -24z
m-10118 -3 c47 -34 50 -40 23 -57 -12 -8 -17 -20 -14 -35 3 -18 -2 -25 -26
-34 -24 -9 -28 -9 -24 1 2 8 11 16 19 19 8 3 14 10 14 16 0 7 -13 1 -29 -12
-17 -13 -28 -29 -25 -36 2 -8 -1 -12 -8 -9 -7 2 -25 -7 -40 -21 -25 -23 -78
-39 -78 -23 0 4 7 16 16 27 14 18 15 18 8 -6 -7 -25 -6 -25 14 -6 12 10 19 22
16 27 -2 5 2 22 11 39 9 17 13 35 10 39 -8 14 5 41 20 41 7 0 18 14 25 30 7
17 16 30 20 30 4 0 26 -14 48 -30z m-444 -5 c3 -8 3 -22 0 -30 -5 -12 -10 -13
-20 -4 -21 17 -17 -1 6 -25 91 -97 121 -143 98 -150 -90 -25 -88 -25 -75 -4 9
16 9 22 0 25 -7 3 -13 18 -13 34 0 26 -2 28 -19 20 -15 -9 -20 -7 -24 10 -4
17 -9 19 -24 10 -11 -5 -25 -6 -33 -1 -8 5 -18 6 -22 4 -5 -3 -3 6 4 20 13 29
18 31 38 14 12 -11 11 -10 0 6 -13 17 -11 22 25 52 45 38 51 40 59 19z m-1069
-136 c-4 -5 1 -9 9 -9 19 0 21 -24 4 -38 -7 -5 -30 -11 -50 -14 -32 -3 -35 -2
-25 11 10 12 6 12 -18 -2 -27 -14 -145 -39 -153 -32 -2 1 14 13 35 26 21 13
44 29 51 35 6 7 21 16 32 19 11 3 20 11 20 16 0 5 -25 -7 -56 -26 -31 -20 -59
-33 -62 -30 -4 3 -2 9 4 13 5 4 16 27 24 52 8 25 28 60 45 79 l29 34 58 -62
c32 -34 56 -66 53 -72z m8235 105 c12 -12 12 -16 -3 -31 -15 -16 -18 -16 -37
2 -11 10 -20 27 -20 37 0 15 5 18 23 13 12 -4 29 -13 37 -21z m-636 -67 c5
-21 3 -28 -6 -25 -7 3 -14 20 -16 39 -4 40 12 30 22 -14z m256 36 c0 -5 -9
-21 -20 -38 -11 -16 -20 -40 -20 -51 0 -12 -8 -28 -17 -35 -15 -13 -16 -12 -8
6 4 11 10 36 13 55 2 19 11 43 20 53 16 18 32 23 32 10z m770 -37 c0 -15 -3
-16 -14 -7 -8 7 -12 21 -9 32 5 16 8 18 14 7 5 -7 9 -21 9 -32z m-201 -56 c0
-20 -1 -22 -9 -10 -7 12 -10 8 -10 -14 0 -22 -3 -27 -11 -19 -9 9 -9 20 0 44
6 17 12 44 12 58 1 25 2 25 9 -4 4 -16 8 -41 9 -55z m-4108 27 c-8 -8 -11 -7
-11 4 0 20 13 34 18 19 3 -7 -1 -17 -7 -23z m3381 -2 c-2 -16 -9 -39 -15 -50
l-12 -22 -22 27 -23 28 27 26 c32 32 49 29 45 -9z m79 -15 c-1 -25 -5 -47 -8
-50 -9 -10 -23 27 -23 63 0 31 3 38 18 35 14 -3 16 -12 13 -48z m-5973 -13
l23 -24 -36 -43 c-19 -23 -35 -38 -35 -33 0 19 -19 119 -26 137 -6 17 -5 17
22 3 16 -8 39 -26 52 -40z m6185 23 c-3 -10 -11 -24 -19 -31 -10 -8 -10 -3 2
20 18 35 24 40 17 11z m-1043 -59 c0 -16 -28 -51 -42 -51 -4 0 -8 7 -8 15 0 8
-4 15 -10 15 -13 0 -13 31 1 66 l10 28 24 -29 c13 -17 24 -36 25 -44z m-5402
47 c21 -21 13 -34 -28 -53 -38 -17 -71 -45 -39 -33 37 14 63 20 56 13 -4 -5 0
-16 8 -25 15 -16 11 -18 -55 -22 -57 -4 -79 -2 -111 14 l-40 19 30 24 c16 14
35 25 42 26 8 0 34 11 59 24 53 27 62 29 78 13z m3045 -66 c-22 -30 -33 -35
-51 -23 -10 6 -11 13 -1 34 7 15 17 27 23 27 6 0 18 10 26 23 l15 22 3 -29 c2
-17 -4 -39 -15 -54z m318 51 c11 -28 5 -58 -10 -49 -5 3 -12 -4 -16 -17 -6
-18 -9 -14 -15 23 -10 63 20 96 41 43z m3219 17 c0 -5 -5 -10 -11 -10 -5 0 -7
5 -4 10 3 6 8 10 11 10 2 0 4 -4 4 -10z m-4680 -21 c0 -6 -4 -7 -10 -4 -5 3
-10 11 -10 16 0 6 5 7 10 4 6 -3 10 -11 10 -16z m140 6 c0 -8 -4 -15 -10 -15
-5 0 -10 7 -10 15 0 8 5 15 10 15 6 0 10 -7 10 -15z m711 -8 c-10 -9 -11 -8
-5 6 3 10 9 15 12 12 3 -3 0 -11 -7 -18z m797 -22 c-6 -14 -13 -23 -16 -21 -7
7 9 46 18 46 5 0 4 -11 -2 -25z m1334 -2 c19 -39 12 -66 -14 -57 -17 5 -19 3
-13 -15 7 -23 -11 -55 -26 -45 -16 9 -7 88 13 117 11 15 21 27 23 27 2 0 10
-12 17 -27z m188 10 c0 -10 -5 -25 -10 -33 -7 -11 -10 -7 -10 18 0 17 5 32 10
32 6 0 10 -8 10 -17z m1311 -61 c-20 -44 -26 -23 -10 34 12 39 15 42 20 22 3
-12 -1 -38 -10 -56z m-8251 41 c0 -19 -3 -24 -10 -17 -6 6 -8 18 -4 27 9 24
14 21 14 -10z m1958 -18 c1 -36 -2 -45 -16 -46 -13 0 -12 -2 5 -9 28 -11 20
-46 -12 -53 -28 -5 -35 8 -35 64 0 30 4 39 18 40 13 0 12 2 -5 9 -38 16 -27
40 17 40 26 0 28 -3 28 -45z m3222 20 c0 -14 -4 -25 -10 -25 -11 0 -14 33 -3
43 11 11 13 8 13 -18z m539 -16 c-6 -20 -20 -46 -30 -60 l-19 -24 0 28 c0 32
16 67 39 84 21 15 22 13 10 -28z m888 19 c-3 -8 -6 -5 -6 6 -1 11 2 17 5 13 3
-3 4 -12 1 -19z m-1227 -18 c-14 -27 -27 -32 -34 -15 -6 17 21 48 35 39 5 -3
5 -13 -1 -24z m155 -2 c-8 -40 -35 -73 -35 -45 0 19 27 77 36 77 3 0 3 -15 -1
-32z m2686 9 c-10 -9 -11 -8 -5 6 3 10 9 15 12 12 3 -3 0 -11 -7 -18z m-4461
-8 c0 -5 -4 -9 -10 -9 -5 0 -10 7 -10 16 0 8 5 12 10 9 6 -3 10 -10 10 -16z
m2253 -11 c-8 -45 -23 -59 -23 -22 0 25 15 54 27 54 1 0 0 -15 -4 -32z m-3683
-34 c0 -28 -4 -43 -10 -39 -5 3 -10 26 -10 51 0 28 4 43 10 39 6 -3 10 -26 10
-51z m5747 34 c-3 -8 -6 -5 -6 6 -1 11 2 17 5 13 3 -3 4 -12 1 -19z m93 14 c0
-5 -9 -17 -21 -28 -21 -19 -21 -19 -8 9 12 26 29 37 29 19z m-5977 -60 c19
-39 28 -72 27 -106 l0 -49 -25 23 c-18 17 -25 34 -26 64 l-1 41 -9 -33 c-7
-22 -14 -30 -22 -25 -7 4 -7 0 2 -10 7 -9 9 -17 4 -17 -6 0 -22 18 -37 40
l-26 39 31 46 c17 25 36 45 42 45 7 -1 25 -27 40 -58z m5781 43 c3 -8 1 -15
-3 -15 -5 0 -11 7 -15 15 -3 8 -1 15 3 15 5 0 11 -7 15 -15z m-6467 -11 c4
-11 -143 -51 -153 -42 -6 6 118 56 135 54 8 0 16 -6 18 -12z m2100 -16 c-3 -7
-5 -2 -5 12 0 14 2 19 5 13 2 -7 2 -19 0 -25z m1393 -3 c0 -8 -4 -17 -10 -20
-6 -4 -10 5 -10 20 0 15 4 24 10 20 6 -3 10 -12 10 -20z m1918 13 c-2 -6 -10
-14 -16 -16 -7 -2 -10 2 -6 12 7 18 28 22 22 4z m292 3 c0 -6 -4 -13 -10 -16
-5 -3 -10 1 -10 9 0 9 5 16 10 16 6 0 10 -4 10 -9z m-4920 -80 c0 -80 -6 -111
-20 -111 -4 0 -10 16 -13 35 -7 42 11 155 24 155 5 0 9 -36 9 -79z m860 58 c0
-6 -4 -7 -10 -4 -5 3 -10 11 -10 16 0 6 5 7 10 4 6 -3 10 -11 10 -16z m5125 2
c-3 -6 -11 -11 -17 -11 -6 0 -6 6 2 15 14 17 26 13 15 -4z m-7050 -1 c3 -5 1
-10 -4 -10 -6 0 -11 5 -11 10 0 6 2 10 4 10 3 0 8 -4 11 -10z m6961 -51 c-10
-32 -15 -40 -20 -27 -7 15 20 85 30 76 2 -3 -2 -24 -10 -49z m-6311 30 c4 -6
5 -13 2 -16 -9 -8 -87 8 -87 18 0 13 77 11 85 -2z m1326 -26 c-10 -17 -10 -16
-11 3 0 23 13 41 18 25 2 -6 -1 -18 -7 -28z m4804 17 c3 -5 1 -10 -4 -10 -6 0
-11 5 -11 10 0 6 2 10 4 10 3 0 8 -4 11 -10z m-6740 -10 c3 -6 -4 -10 -17 -10
-18 0 -20 2 -8 10 19 12 18 12 25 0z m211 -1 c3 -6 17 -8 30 -5 33 9 30 -10
-3 -26 -23 -11 -28 -20 -27 -46 2 -31 2 -31 -21 -14 -15 11 -19 19 -11 24 6 4
11 12 11 18 0 6 7 15 15 20 8 5 11 12 8 16 -4 3 -15 -2 -25 -12 -17 -16 -18
-16 -21 -1 -2 9 -10 17 -19 17 -10 0 -13 -6 -9 -16 11 -28 -12 -54 -48 -54
-30 0 -32 2 -28 30 4 27 9 30 66 44 78 18 74 18 82 5z m312 -4 c2 -2 2 -17 0
-33 -3 -26 -5 -29 -19 -19 -9 7 -19 25 -23 40 -6 26 -5 28 16 22 13 -4 24 -9
26 -10z m68 -11 c24 -6 33 -37 14 -49 -5 -3 -10 1 -10 10 0 12 -6 15 -19 10
-14 -4 -23 0 -30 14 -15 27 -14 34 5 27 9 -3 27 -9 40 -12z m874 -42 c0 -43
-1 -45 -16 -30 -12 12 -15 26 -10 52 9 50 26 35 26 -22z m3580 8 c-18 -11 -24
-6 -16 16 5 14 9 15 19 5 9 -9 9 -14 -3 -21z m-5039 -24 c-13 -6 -21 -18 -21
-35 0 -25 0 -25 -15 -4 -15 21 -11 53 6 53 4 0 6 7 2 16 -5 14 -2 14 22 -2 27
-18 27 -18 6 -28z m26 38 c-3 -3 -12 -4 -19 -1 -8 3 -5 6 6 6 11 1 17 -2 13
-5z m793 -38 c0 -58 -11 -95 -26 -89 -16 6 -17 50 -2 101 12 40 28 33 28 -12z
m371 -61 c-19 -38 -30 -52 -31 -39 0 19 8 41 43 124 l11 25 3 -25 c2 -14 -10
-52 -26 -85z m465 68 c-11 -11 -17 4 -9 23 7 18 8 18 11 1 2 -10 1 -21 -2 -24z
m-1366 20 c0 -5 -8 -20 -18 -35 -14 -22 -21 -25 -30 -16 -17 17 -15 41 2 35 8
-3 17 1 20 9 6 14 26 20 26 7z m383 -33 c-8 -31 -23 -34 -23 -6 0 16 6 26 14
26 9 0 12 -7 9 -20z m387 12 c0 -5 -7 -17 -15 -28 -15 -19 -20 -8 -9 20 6 17
24 22 24 8z m-1979 -12 c12 0 19 -7 19 -19 0 -26 -13 -33 -45 -25 -18 4 -25
13 -25 31 0 19 4 24 16 19 9 -3 24 -6 35 -6z m1394 -38 c-12 -13 -24 22 -12
37 10 12 13 11 15 -8 2 -13 1 -26 -3 -29z m-1694 5 c11 -13 14 -27 9 -36 -4
-9 -12 -27 -17 -40 -9 -24 -9 -24 -31 13 -21 36 -28 76 -16 89 9 9 37 -4 55
-26z m2089 -8 c0 -42 -25 -37 -27 5 -1 26 2 33 13 29 8 -3 14 -18 14 -34z
m-2004 -39 c-29 -36 -35 -23 -9 21 11 18 21 25 26 20 6 -6 0 -22 -17 -41z
m1234 25 c0 -26 -14 -33 -25 -15 -9 14 1 40 15 40 5 0 10 -11 10 -25z m944
-27 c-8 -51 -24 -74 -24 -35 0 24 18 77 27 77 2 0 0 -19 -3 -42z m286 12 c0
-5 -5 -10 -11 -10 -5 0 -7 5 -4 10 3 6 8 10 11 10 2 0 4 -4 4 -10z m30 -30 c0
-5 -4 -10 -10 -10 -5 0 -10 5 -10 10 0 6 5 10 10 10 6 0 10 -4 10 -10z"/>
<path d="M8120 5345 c0 -8 -8 -15 -17 -15 -15 -1 -14 -4 6 -21 20 -16 26 -18
32 -6 9 16 1 57 -12 57 -5 0 -9 -7 -9 -15z"/>
<path d="M9725 5100 c3 -5 8 -10 11 -10 2 0 4 5 4 10 0 6 -5 10 -11 10 -5 0
-7 -4 -4 -10z"/>
<path d="M10060 5030 c0 -5 7 -10 15 -10 8 0 15 5 15 10 0 6 -7 10 -15 10 -8
0 -15 -4 -15 -10z"/>
<path d="M10133 5015 c-34 -33 -29 -50 7 -25 17 12 30 28 30 36 0 19 -11 16
-37 -11z"/>
<path d="M10301 4904 c0 -11 3 -14 6 -6 3 7 2 16 -1 19 -3 4 -6 -2 -5 -13z"/>
<path d="M2715 5089 c-4 -6 -5 -12 -2 -15 2 -3 7 2 10 11 7 17 1 20 -8 4z"/>
<path d="M10562 4874 c-11 -12 -11 -17 2 -29 21 -22 26 -19 26 15 0 33 -8 37
-28 14z"/>
<path d="M10597 4460 c-9 -11 -13 -20 -8 -20 11 0 35 29 29 35 -2 2 -12 -4
-21 -15z"/>
<path d="M10565 4250 c3 -5 8 -10 11 -10 2 0 4 5 4 10 0 6 -5 10 -11 10 -5 0
-7 -4 -4 -10z"/>
<path d="M3540 4590 c0 -5 5 -10 10 -10 6 0 10 5 10 10 0 6 -4 10 -10 10 -5 0
-10 -4 -10 -10z"/>
<path d="M10700 4485 c0 -18 19 -40 26 -32 4 4 0 15 -9 24 -9 10 -17 13 -17 8z"/>
<path d="M1676 1814 c-4 -20 -5 -38 -3 -40 3 -3 8 11 11 32 4 20 5 38 3 40 -3
3 -8 -11 -11 -32z"/>
<path d="M1661 1734 c0 -11 3 -14 6 -6 3 7 2 16 -1 19 -3 4 -6 -2 -5 -13z"/>
<path d="M151 1764 c0 -11 3 -14 6 -6 3 7 2 16 -1 19 -3 4 -6 -2 -5 -13z"/>
<path d="M1850 1775 c-8 -9 -8 -15 -2 -15 12 0 26 19 19 26 -2 2 -10 -2 -17
-11z"/>
<path d="M1813 1728 c-20 -26 -26 -41 -15 -34 12 7 36 46 29 46 -3 0 -9 -6
-14 -12z"/>
<path d="M1765 1669 c-4 -6 -5 -12 -2 -15 2 -3 7 2 10 11 7 17 1 20 -8 4z"/>
<path d="M1460 1631 c0 -10 30 -24 37 -17 3 2 -5 9 -16 16 -12 6 -21 7 -21 1z"/>
<path d="M335 1630 c-3 -5 -1 -10 4 -10 6 0 11 5 11 10 0 6 -2 10 -4 10 -3 0
-8 -4 -11 -10z"/>
<path d="M12035 7170 c3 -5 8 -10 11 -10 2 0 4 5 4 10 0 6 -5 10 -11 10 -5 0
-7 -4 -4 -10z"/>
<path d="M12205 7140 c3 -5 10 -10 16 -10 5 0 9 5 9 10 0 6 -7 10 -16 10 -8 0
-12 -4 -9 -10z"/>
<path d="M10155 7060 c3 -5 8 -10 11 -10 2 0 4 5 4 10 0 6 -5 10 -11 10 -5 0
-7 -4 -4 -10z"/>
<path d="M12525 7040 c3 -5 8 -10 11 -10 2 0 4 5 4 10 0 6 -5 10 -11 10 -5 0
-7 -4 -4 -10z"/>
<path d="M12545 7000 c-3 -5 1 -10 9 -10 9 0 16 5 16 10 0 6 -4 10 -9 10 -6 0
-13 -4 -16 -10z"/>
<path d="M12435 6940 c3 -5 8 -10 11 -10 2 0 4 5 4 10 0 6 -5 10 -11 10 -5 0
-7 -4 -4 -10z"/>
<path d="M10555 6890 c3 -5 8 -10 11 -10 2 0 4 5 4 10 0 6 -5 10 -11 10 -5 0
-7 -4 -4 -10z"/>
<path d="M9895 6880 c-3 -5 -1 -10 4 -10 6 0 11 5 11 10 0 6 -2 10 -4 10 -3 0
-8 -4 -11 -10z"/>
<path d="M9825 6790 c3 -5 8 -10 11 -10 2 0 4 5 4 10 0 6 -5 10 -11 10 -5 0
-7 -4 -4 -10z"/>
<path d="M9780 6783 c0 -5 3 -13 8 -17 4 -4 7 -13 7 -19 0 -7 8 -13 18 -15 24
-5 21 11 -8 38 -14 13 -25 19 -25 13z"/>
<path d="M9340 6650 c0 -5 5 -10 10 -10 6 0 10 5 10 10 0 6 -4 10 -10 10 -5 0
-10 -4 -10 -10z"/>
<path d="M9130 6616 c0 -9 5 -16 10 -16 6 0 10 4 10 9 0 6 -4 13 -10 16 -5 3
-10 -1 -10 -9z"/>
<path d="M8815 6610 c-4 -7 -1 -16 6 -21 17 -10 26 8 11 23 -6 6 -12 6 -17 -2z"/>
<path d="M8566 6545 c-4 -12 -1 -16 11 -13 18 3 21 20 5 26 -5 1 -12 -4 -16
-13z"/>
<path d="M7341 6528 c-57 -39 -75 -71 -79 -144 -3 -48 0 -76 13 -104 14 -31
16 -53 11 -97 -7 -61 3 -67 13 -7 6 39 18 49 66 59 17 4 50 27 76 54 56 58 78
122 61 179 -18 58 -34 74 -83 79 -35 4 -51 0 -78 -19z"/>
<path d="M8646 6535 c-3 -8 -1 -15 4 -15 6 0 10 7 10 15 0 8 -2 15 -4 15 -2 0
-6 -7 -10 -15z"/>
<path d="M8075 6410 c3 -5 8 -10 11 -10 2 0 4 5 4 10 0 6 -5 10 -11 10 -5 0
-7 -4 -4 -10z"/>
<path d="M8214 6405 c-19 -14 -19 -14 2 -15 12 0 24 7 28 15 7 19 -5 19 -30 0z"/>
<path d="M7816 6181 c-4 -5 -2 -12 3 -15 5 -4 12 -2 15 3 4 5 2 12 -3 15 -5 4
-12 2 -15 -3z"/>
<path d="M5330 6090 c-18 -34 -110 -323 -110 -348 0 -33 -24 -37 -87 -13 -56
22 -57 22 -83 3 -18 -14 -25 -28 -25 -53 0 -31 3 -35 43 -47 23 -8 42 -17 41
-20 0 -4 -29 -29 -65 -57 -35 -27 -64 -54 -64 -60 0 -6 15 -19 34 -28 32 -15
41 -15 133 4 59 11 110 28 127 41 31 22 59 24 169 12 55 -6 57 -5 57 18 0 25
-23 51 -72 81 -35 22 -35 42 -3 132 27 78 30 127 14 222 -18 103 -80 168 -109
113z"/>
<path d="M7245 6070 c-9 -16 -13 -30 -11 -30 3 0 12 14 21 30 9 17 13 30 11
30 -3 0 -12 -13 -21 -30z"/>
<path d="M7216 5981 c-5 -19 -19 -54 -33 -78 -13 -24 -23 -49 -20 -56 5 -17
68 125 64 148 -2 15 -5 11 -11 -14z"/>
<path d="M6705 5991 c-46 -20 -85 -93 -85 -160 0 -22 11 -71 24 -108 30 -81
93 -146 159 -164 79 -21 91 -32 108 -101 9 -36 29 -93 46 -129 17 -35 36 -89
42 -119 6 -30 25 -82 41 -115 16 -33 32 -69 36 -80 6 -17 8 -17 11 -4 2 9 -11
48 -30 85 -19 38 -40 93 -46 122 -6 29 -22 75 -36 102 -36 70 -53 126 -61 196
-5 51 -3 66 12 90 15 22 19 47 19 124 0 87 -3 100 -30 150 -48 87 -146 139
-210 111z"/>
<path d="M7530 5987 c0 -9 5 -17 10 -17 6 0 8 -13 5 -30 -6 -35 -2 -37 27 -10
12 11 18 20 12 20 -5 0 -2 5 6 11 13 9 13 10 0 6 -8 -2 -25 5 -37 16 -20 18
-23 18 -23 4z"/>
<path d="M7533 5848 c0 -27 3 -51 7 -53 15 -9 39 22 42 54 3 30 0 35 -23 41
-27 8 -27 7 -26 -42z"/>
<path d="M7815 5700 c-3 -5 4 -23 16 -38 19 -24 21 -25 15 -4 -5 13 -3 22 3
22 6 0 11 5 11 12 0 6 -3 8 -7 5 -3 -4 -12 -2 -19 4 -8 7 -14 7 -19 -1z"/>
<path d="M7860 5650 c0 -5 5 -10 11 -10 5 0 7 5 4 10 -3 6 -8 10 -11 10 -2 0
-4 -4 -4 -10z"/>
<path d="M1460 5460 c0 -5 5 -10 10 -10 6 0 10 5 10 10 0 6 -4 10 -10 10 -5 0
-10 -4 -10 -10z"/>
<path d="M8505 5220 c-8 -13 5 -13 25 0 13 8 13 10 -2 10 -9 0 -20 -4 -23 -10z"/>
<path d="M8850 5193 c0 -13 -4 -23 -9 -23 -5 0 -16 -6 -23 -13 -7 -7 -25 -18
-40 -24 -24 -11 -28 -10 -33 7 -8 24 -21 26 -29 4 -10 -27 -7 -54 8 -54 8 0
21 -3 30 -6 11 -4 16 0 16 12 0 13 3 15 11 7 14 -14 59 11 59 32 0 8 7 21 16
29 11 12 13 20 5 33 -9 16 -10 16 -11 -4z"/>
<path d="M7645 5180 c-3 -5 -1 -10 4 -10 6 0 11 5 11 10 0 6 -2 10 -4 10 -3 0
-8 -4 -11 -10z"/>
<path d="M8990 5170 c0 -5 5 -10 11 -10 5 0 7 5 4 10 -3 6 -8 10 -11 10 -2 0
-4 -4 -4 -10z"/>
<path d="M8890 5130 c0 -36 11 -39 26 -5 12 26 9 35 -13 35 -8 0 -13 -12 -13
-30z"/>
<path d="M8647 5069 c-4 -13 0 -22 10 -26 14 -6 14 -8 -1 -19 -21 -15 -8 -25
23 -17 13 3 20 11 17 19 -3 7 4 16 15 19 19 6 19 7 -5 26 -31 25 -52 24 -59
-2z"/>
<path d="M8565 5070 c-3 -5 -1 -10 4 -10 6 0 11 5 11 10 0 6 -2 10 -4 10 -3 0
-8 -4 -11 -10z"/>
<path d="M7850 5060 c0 -6 7 -10 15 -10 8 0 15 2 15 4 0 2 -7 6 -15 10 -8 3
-15 1 -15 -4z"/>
<path d="M8786 5055 c-18 -18 -21 -35 -6 -35 6 0 10 6 10 14 0 8 6 16 13 19 6
2 9 7 6 11 -4 4 -14 0 -23 -9z"/>
<path d="M7847 5023 c-10 -9 -9 -23 2 -23 5 0 11 7 15 15 5 15 -5 20 -17 8z"/>
<path d="M8745 5000 c3 -5 11 -10 16 -10 6 0 7 5 4 10 -3 6 -11 10 -16 10 -6
0 -7 -4 -4 -10z"/>
<path d="M7705 4980 c-3 -5 3 -10 14 -10 12 0 21 5 21 10 0 6 -6 10 -14 10 -8
0 -18 -4 -21 -10z"/>
<path d="M8220 4924 c0 -8 5 -12 10 -9 6 4 8 11 5 16 -9 14 -15 11 -15 -7z"/>
<path d="M8255 4920 c-3 -5 -1 -10 4 -10 6 0 11 5 11 10 0 6 -2 10 -4 10 -3 0
-8 -4 -11 -10z"/>
<path d="M8990 4879 c0 -9 7 -22 15 -29 19 -16 19 0 0 26 -12 16 -14 16 -15 3z"/>
<path d="M7807 4846 c-4 -10 -1 -13 8 -9 8 3 12 9 9 14 -7 12 -11 11 -17 -5z"/>
<path d="M7850 4782 c0 -5 7 -13 16 -16 10 -4 14 -1 12 6 -5 15 -28 23 -28 10z"/>
<path d="M7902 4783 c-21 -8 -4 -21 24 -15 19 3 22 7 12 13 -14 10 -17 10 -36
2z"/>
<path d="M4425 4560 c-3 -5 -1 -10 4 -10 6 0 11 5 11 10 0 6 -2 10 -4 10 -3 0
-8 -4 -11 -10z"/>
<path d="M4276 4505 c4 -8 10 -12 15 -9 14 8 10 24 -6 24 -9 0 -12 -6 -9 -15z"/>
<path d="M45 4440 c-6 -9 16 -40 29 -40 12 0 6 28 -8 39 -10 8 -16 9 -21 1z"/>
<path d="M4182 3971 c2 -7 7 -12 11 -12 12 1 9 15 -3 20 -7 2 -11 -2 -8 -8z"/>
<path d="M8730 3973 c0 -4 5 -15 10 -23 8 -13 10 -13 10 2 0 9 -4 20 -10 23
-5 3 -10 3 -10 -2z"/>
<path d="M8757 3909 c4 -13 8 -18 11 -10 2 7 -1 18 -6 23 -8 8 -9 4 -5 -13z"/>
<path d="M8548 3861 c-2 -17 -1 -28 3 -26 10 7 18 55 9 55 -4 0 -10 -13 -12
-29z"/>
<path d="M4606 3871 c-3 -5 0 -11 8 -14 15 -6 26 1 26 15 0 11 -27 10 -34 -1z"/>
<path d="M10364 3735 c11 -8 27 -15 35 -15 10 1 7 6 -9 15 -33 19 -50 18 -26
0z"/>
<path d="M10469 3733 c-13 -16 -12 -17 4 -4 16 13 21 21 13 21 -2 0 -10 -8
-17 -17z"/>
<path d="M10476 3563 c10 -40 14 -41 14 -5 0 18 -5 32 -10 32 -6 0 -8 -11 -4
-27z"/>
<path d="M10454 3409 c-3 -6 -19 -9 -35 -5 -16 3 -29 1 -29 -4 0 -5 -19 -13
-42 -19 l-43 -10 42 2 c24 1 45 -2 48 -8 3 -6 7 -5 11 3 13 28 24 8 25 -45 1
-44 3 -52 9 -33 4 14 8 40 9 59 1 19 8 43 18 53 9 10 11 18 5 18 -6 0 -14 -5
-18 -11z"/>
<path d="M10480 3375 c-11 -13 -10 -14 4 -9 9 3 16 10 16 15 0 13 -6 11 -20
-6z"/>
<path d="M9725 2683 c-21 -16 -62 -39 -90 -53 l-50 -25 0 -50 c0 -29 -8 -64
-18 -83 -14 -26 -16 -37 -6 -48 16 -19 38 -18 77 6 18 11 37 18 41 16 4 -3 25
5 46 17 71 40 110 166 69 225 -19 28 -21 28 -69 -5z"/>
<path d="M4932 2506 c-6 -13 -14 -40 -18 -60 -4 -23 -16 -43 -33 -56 -35 -24
-58 -91 -43 -124 14 -32 63 -38 110 -15 20 10 37 17 40 15 2 -2 -15 -24 -38
-47 -23 -24 -38 -45 -32 -47 5 -1 58 32 118 74 60 41 116 80 124 84 27 15 0
24 -33 11 -67 -27 -67 -27 -67 15 0 119 -93 227 -128 150z"/>
<path d="M12230 2450 c0 -5 5 -10 10 -10 6 0 10 5 10 10 0 6 -4 10 -10 10 -5
0 -10 -4 -10 -10z"/>
<path d="M6633 2398 c-33 -37 -43 -64 -43 -117 0 -55 -2 -57 -40 -36 -46 26
-55 16 -20 -20 19 -19 38 -35 44 -35 6 0 36 -18 67 -40 32 -22 61 -40 65 -40
5 0 -12 20 -36 45 -49 50 -43 56 24 23 44 -21 46 -21 66 -3 25 23 25 41 -1 90
-12 22 -34 66 -50 98 -32 62 -45 69 -76 35z"/>
<path d="M1396 2374 c-3 -8 1 -22 9 -30 8 -9 15 -20 15 -25 0 -5 7 -9 15 -9
19 0 19 38 1 63 -16 21 -32 22 -40 1z"/>
<path d="M9243 2328 c-30 -15 -57 -69 -50 -100 11 -44 39 -69 83 -75 35 -4 46
-1 74 24 46 41 47 94 2 134 -34 30 -70 36 -109 17z"/>
<path d="M5745 2253 c-33 -36 -55 -85 -55 -125 0 -23 -7 -22 -61 1 -65 28
-112 34 -134 17 -18 -13 -18 -15 -2 -39 9 -14 35 -40 57 -58 22 -18 40 -37 40
-44 0 -6 15 -28 34 -48 58 -63 124 -44 96 27 -16 44 -12 51 16 25 l25 -24 -10
28 c-13 35 -1 35 43 2 44 -33 72 -32 91 4 17 34 6 80 -27 117 -10 12 -26 50
-36 84 -9 35 -23 65 -29 67 -7 3 -28 -13 -48 -34z"/>
<path d="M2296 2229 c-37 -29 -47 -59 -35 -103 12 -42 40 -64 92 -73 31 -5 39
-11 47 -37 10 -31 10 -31 5 6 -5 30 -1 41 20 62 35 35 35 100 0 139 -33 34
-89 37 -129 6z"/>
<path d="M6419 2105 c-14 -8 -32 -28 -39 -44 -34 -84 65 -167 138 -115 56 39
60 107 10 149 -33 28 -70 31 -109 10z"/>
<path d="M8978 2046 c-22 -16 -23 -45 -2 -74 20 -29 35 -28 65 4 22 23 23 27
8 52 -17 31 -46 38 -71 18z m51 -20 c17 -20 2 -48 -23 -44 -24 3 -34 37 -14
49 18 12 24 11 37 -5z"/>
<path d="M8997 2024 c-14 -14 -7 -35 11 -32 9 2 17 10 17 17 0 16 -18 25 -28
15z"/>
<path d="M8802 1978 c-7 -7 -12 -27 -12 -45 0 -42 31 -60 73 -44 22 9 27 17
27 44 0 40 -15 57 -50 57 -14 0 -31 -5 -38 -12z"/>
<path d="M2474 1870 c-57 -23 -72 -107 -28 -159 22 -27 32 -31 74 -31 44 0 52
4 79 37 17 21 31 48 31 60 0 75 -81 123 -156 93z"/>
<path d="M6158 1829 c-22 -13 -23 -52 -2 -73 22 -22 57 -20 80 5 17 19 17 23
3 47 -16 29 -52 39 -81 21z"/>
<path d="M6726 1784 c-32 -32 -13 -74 34 -74 32 0 50 17 50 47 0 38 -55 56
-84 27z m62 -37 c3 -26 1 -28 -25 -25 -22 2 -29 9 -30 28 l-3 25 10 -23 c11
-26 33 -25 38 0 2 9 -5 19 -15 22 -15 4 -15 5 2 3 14 -2 21 -11 23 -30z"/>
<path d="M5983 1754 c-15 -15 -22 -31 -19 -40 3 -9 6 -20 6 -25 0 -5 12 -14
26 -20 51 -19 104 43 69 81 -27 30 -55 31 -82 4z"/>
<path d="M6366 1521 c-3 -5 1 -11 9 -15 9 -3 15 0 15 9 0 16 -16 20 -24 6z"/>
</g>
</svg>
